solid OpenSCAD_Model
  facet normal 1 -0 0
    outer loop
      vertex 55.7 0 5
      vertex 55.7 127.7 0
      vertex 55.7 127.7 5
    endloop
  endfacet
  facet normal 1 0 0
    outer loop
      vertex 55.7 127.7 0
      vertex 55.7 0 5
      vertex 55.7 0 0
    endloop
  endfacet
  facet normal 0 0 -1
    outer loop
      vertex 0 127.7 5
      vertex 42.5 127.85 5
      vertex 42.5 127.7 5
    endloop
  endfacet
  facet normal -0 0 -1
    outer loop
      vertex 42.5 127.85 5
      vertex 0 127.7 5
      vertex 0 127.85 5
    endloop
  endfacet
  facet normal -0 0 1
    outer loop
      vertex 50.2771 9.61336 5
      vertex 55.7 0 5
      vertex 50.2771 118.087 5
    endloop
  endfacet
  facet normal 0 0 1
    outer loop
      vertex 55.7 0 5
      vertex 50.2771 9.61336 5
      vertex 50.85 7.85 5
    endloop
  endfacet
  facet normal -0 0 1
    outer loop
      vertex 48.7771 116.997 5
      vertex 50.2771 9.61336 5
      vertex 50.2771 118.087 5
    endloop
  endfacet
  facet normal 0 0 1
    outer loop
      vertex 48.7771 116.997 5
      vertex 48.7771 10.7032 5
      vertex 50.2771 9.61336 5
    endloop
  endfacet
  facet normal 0 0 1
    outer loop
      vertex 42.5 12.5 5
      vertex 48.7771 116.997 5
      vertex 46.923 116.997 5
    endloop
  endfacet
  facet normal 0 0 1
    outer loop
      vertex 48.7771 116.997 5
      vertex 42.5 12.5 5
      vertex 48.7771 10.7032 5
    endloop
  endfacet
  facet normal 0 0 1
    outer loop
      vertex 42.5 12.5 5
      vertex 46.923 116.997 5
      vertex 45.423 118.087 5
    endloop
  endfacet
  facet normal 0 0 1
    outer loop
      vertex 48.7771 10.7032 5
      vertex 42.5 12.5 5
      vertex 46.923 10.7032 5
    endloop
  endfacet
  facet normal 0 0 1
    outer loop
      vertex 42.5 12.5 5
      vertex 45.423 118.087 5
      vertex 44.85 119.85 5
    endloop
  endfacet
  facet normal 0 0 1
    outer loop
      vertex 46.923 10.7032 5
      vertex 42.5 12.5 5
      vertex 45.423 9.61336 5
    endloop
  endfacet
  facet normal 0 0 1
    outer loop
      vertex 50.2771 118.087 5
      vertex 55.7 127.7 5
      vertex 50.85 119.85 5
    endloop
  endfacet
  facet normal 0 0 1
    outer loop
      vertex 55.7 127.7 5
      vertex 50.2771 121.613 5
      vertex 50.85 119.85 5
    endloop
  endfacet
  facet normal 0 0 1
    outer loop
      vertex 55.7 127.7 5
      vertex 48.7771 122.703 5
      vertex 50.2771 121.613 5
    endloop
  endfacet
  facet normal -0 0 1
    outer loop
      vertex 42.5 127.7 5
      vertex 48.7771 122.703 5
      vertex 55.7 127.7 5
    endloop
  endfacet
  facet normal 0 0 1
    outer loop
      vertex 42.5 12.5 5
      vertex 44.85 119.85 5
      vertex 42.5 127.7 5
    endloop
  endfacet
  facet normal 0 0 1
    outer loop
      vertex 45.423 121.613 5
      vertex 42.5 127.7 5
      vertex 44.85 119.85 5
    endloop
  endfacet
  facet normal 0 0 1
    outer loop
      vertex 46.923 122.703 5
      vertex 42.5 127.7 5
      vertex 45.423 121.613 5
    endloop
  endfacet
  facet normal 0 0 1
    outer loop
      vertex 48.7771 122.703 5
      vertex 42.5 127.7 5
      vertex 46.923 122.703 5
    endloop
  endfacet
  facet normal 0 0 1
    outer loop
      vertex 55.7 127.7 5
      vertex 50.2771 118.087 5
      vertex 55.7 0 5
    endloop
  endfacet
  facet normal -0 0 1
    outer loop
      vertex 50.2771 6.08664 5
      vertex 55.7 0 5
      vertex 50.85 7.85 5
    endloop
  endfacet
  facet normal -0 0 1
    outer loop
      vertex 48.7771 4.99683 5
      vertex 55.7 0 5
      vertex 50.2771 6.08664 5
    endloop
  endfacet
  facet normal -0 0 1
    outer loop
      vertex 46.923 4.99683 5
      vertex 55.7 0 5
      vertex 48.7771 4.99683 5
    endloop
  endfacet
  facet normal 0 0 1
    outer loop
      vertex 45.423 9.61336 5
      vertex 42.5 12.5 5
      vertex 44.85 7.85 5
    endloop
  endfacet
  facet normal 0 0 1
    outer loop
      vertex 42.5 12.5 5
      vertex 45.423 6.08664 5
      vertex 44.85 7.85 5
    endloop
  endfacet
  facet normal 0 0 1
    outer loop
      vertex 0 0 5
      vertex 42.5 12.5 5
      vertex 0 12.5 5
    endloop
  endfacet
  facet normal 0 0 1
    outer loop
      vertex 42.5 12.5 5
      vertex 0 0 5
      vertex 45.423 6.08664 5
    endloop
  endfacet
  facet normal 0 0 1
    outer loop
      vertex 45.423 6.08664 5
      vertex 0 0 5
      vertex 46.923 4.99683 5
    endloop
  endfacet
  facet normal 0 0 1
    outer loop
      vertex 46.923 4.99683 5
      vertex 0 0 5
      vertex 55.7 0 5
    endloop
  endfacet
  facet normal 0 0 -1
    outer loop
      vertex 48.3135 9.27658 0
      vertex 49.35 119.85 0
      vertex 49.35 7.85 0
    endloop
  endfacet
  facet normal 0 0 -1
    outer loop
      vertex 48.3135 9.27658 0
      vertex 48.3135 118.423 0
      vertex 49.35 119.85 0
    endloop
  endfacet
  facet normal 0 0 -1
    outer loop
      vertex 37.5 17.5 0
      vertex 48.3135 9.27658 0
      vertex 46.6365 8.73168 0
    endloop
  endfacet
  facet normal 0 0 -1
    outer loop
      vertex 48.3135 9.27658 0
      vertex 37.5 17.5 0
      vertex 48.3135 118.423 0
    endloop
  endfacet
  facet normal 0 0 -1
    outer loop
      vertex 55.7 0 0
      vertex 49.35 7.85 0
      vertex 55.7 127.7 0
    endloop
  endfacet
  facet normal 0 0 -1
    outer loop
      vertex 55.7 0 0
      vertex 48.3135 6.42342 0
      vertex 49.35 7.85 0
    endloop
  endfacet
  facet normal 0 0 -1
    outer loop
      vertex 55.7 0 0
      vertex 46.6365 6.96832 0
      vertex 48.3135 6.42342 0
    endloop
  endfacet
  facet normal 0 0 -1
    outer loop
      vertex 37.5 17.5 0
      vertex 46.6365 8.73168 0
      vertex 46.6365 6.96832 0
    endloop
  endfacet
  facet normal 0 0 -1
    outer loop
      vertex 37.5 112.5 0
      vertex 48.3135 118.423 0
      vertex 37.5 17.5 0
    endloop
  endfacet
  facet normal -0 0 -1
    outer loop
      vertex 48.3135 118.423 0
      vertex 37.5 112.5 0
      vertex 46.6365 118.968 0
    endloop
  endfacet
  facet normal 0 0 -1
    outer loop
      vertex 0 0 0
      vertex 46.6365 6.96832 0
      vertex 55.7 0 0
    endloop
  endfacet
  facet normal 0 0 -1
    outer loop
      vertex 0 0 0
      vertex 37.5 17.5 0
      vertex 46.6365 6.96832 0
    endloop
  endfacet
  facet normal -0 0 -1
    outer loop
      vertex 37.5 17.5 0
      vertex 0 0 0
      vertex 0 17.5 0
    endloop
  endfacet
  facet normal 0 0 -1
    outer loop
      vertex 49.35 119.85 0
      vertex 55.7 127.7 0
      vertex 49.35 7.85 0
    endloop
  endfacet
  facet normal 0 0 -1
    outer loop
      vertex 48.3135 121.277 0
      vertex 55.7 127.7 0
      vertex 49.35 119.85 0
    endloop
  endfacet
  facet normal 0 0 -1
    outer loop
      vertex 46.6365 120.732 0
      vertex 55.7 127.7 0
      vertex 48.3135 121.277 0
    endloop
  endfacet
  facet normal -0 0 -1
    outer loop
      vertex 46.6365 118.968 0
      vertex 37.5 112.5 0
      vertex 46.6365 120.732 0
    endloop
  endfacet
  facet normal 0 0 -1
    outer loop
      vertex 0 127.7 0
      vertex 37.5 112.5 0
      vertex 0 112.5 0
    endloop
  endfacet
  facet normal 0 0 -1
    outer loop
      vertex 37.5 112.5 0
      vertex 0 127.7 0
      vertex 46.6365 120.732 0
    endloop
  endfacet
  facet normal 0 0 -1
    outer loop
      vertex 46.6365 120.732 0
      vertex 0 127.7 0
      vertex 55.7 127.7 0
    endloop
  endfacet
  facet normal 0 1 -0
    outer loop
      vertex 55.7 127.7 0
      vertex 42.5 127.7 5
      vertex 55.7 127.7 5
    endloop
  endfacet
  facet normal 0 1 0
    outer loop
      vertex 0 127.7 0
      vertex 42.5 127.7 5
      vertex 55.7 127.7 0
    endloop
  endfacet
  facet normal 0 1 0
    outer loop
      vertex 42.5 127.7 5
      vertex 0 127.7 0
      vertex 0 127.7 5
    endloop
  endfacet
  facet normal 0 -1 0
    outer loop
      vertex 0 0 0
      vertex 55.7 0 5
      vertex 0 0 5
    endloop
  endfacet
  facet normal 0 -1 -0
    outer loop
      vertex 55.7 0 5
      vertex 0 0 0
      vertex 55.7 0 0
    endloop
  endfacet
  facet normal -1 0 0
    outer loop
      vertex 37.5 17.5 0
      vertex 37.5 112.5 29
      vertex 37.5 112.5 0
    endloop
  endfacet
  facet normal -1 -0 0
    outer loop
      vertex 37.5 112.5 29
      vertex 37.5 17.5 0
      vertex 37.5 17.5 29
    endloop
  endfacet
  facet normal 0 -1 0
    outer loop
      vertex 0 112.5 0
      vertex 37.5 112.5 29
      vertex 0 112.5 29
    endloop
  endfacet
  facet normal 0 -1 -0
    outer loop
      vertex 37.5 112.5 29
      vertex 0 112.5 0
      vertex 37.5 112.5 0
    endloop
  endfacet
  facet normal 0 1 -0
    outer loop
      vertex 37.5 17.5 0
      vertex 0 17.5 29
      vertex 37.5 17.5 29
    endloop
  endfacet
  facet normal 0 1 0
    outer loop
      vertex 0 17.5 29
      vertex 37.5 17.5 0
      vertex 0 17.5 0
    endloop
  endfacet
  facet normal 0.309073 0.951038 -0
    outer loop
      vertex 48.3135 118.423 0
      vertex 46.6365 118.968 3
      vertex 48.3135 118.423 3
    endloop
  endfacet
  facet normal 0.309073 0.951038 0
    outer loop
      vertex 46.6365 118.968 3
      vertex 48.3135 118.423 0
      vertex 46.6365 118.968 0
    endloop
  endfacet
  facet normal 0.309073 -0.951038 0
    outer loop
      vertex 46.6365 120.732 0
      vertex 48.3135 121.277 3
      vertex 46.6365 120.732 3
    endloop
  endfacet
  facet normal 0.309073 -0.951038 0
    outer loop
      vertex 48.3135 121.277 3
      vertex 46.6365 120.732 0
      vertex 48.3135 121.277 0
    endloop
  endfacet
  facet normal -0.809091 -0.587683 0
    outer loop
      vertex 49.35 119.85 0
      vertex 48.3135 121.277 3
      vertex 48.3135 121.277 0
    endloop
  endfacet
  facet normal -0.809091 -0.587683 0
    outer loop
      vertex 48.3135 121.277 3
      vertex 49.35 119.85 0
      vertex 49.35 119.85 3
    endloop
  endfacet
  facet normal 1 -0 0
    outer loop
      vertex 46.6365 118.968 3
      vertex 46.6365 120.732 0
      vertex 46.6365 120.732 3
    endloop
  endfacet
  facet normal 1 0 0
    outer loop
      vertex 46.6365 120.732 0
      vertex 46.6365 118.968 3
      vertex 46.6365 118.968 0
    endloop
  endfacet
  facet normal -0.809091 0.587683 0
    outer loop
      vertex 48.3135 118.423 0
      vertex 49.35 119.85 3
      vertex 49.35 119.85 0
    endloop
  endfacet
  facet normal -0.809091 0.587683 0
    outer loop
      vertex 49.35 119.85 3
      vertex 48.3135 118.423 0
      vertex 48.3135 118.423 3
    endloop
  endfacet
  facet normal 0.95103 0.309098 0
    outer loop
      vertex 45.423 118.087 5
      vertex 44.85 119.85 3
      vertex 44.85 119.85 5
    endloop
  endfacet
  facet normal 0.95103 0.309098 0
    outer loop
      vertex 44.85 119.85 3
      vertex 45.423 118.087 5
      vertex 45.423 118.087 3
    endloop
  endfacet
  facet normal -0.587851 -0.808969 0
    outer loop
      vertex 48.7771 122.703 3
      vertex 50.2771 121.613 5
      vertex 48.7771 122.703 5
    endloop
  endfacet
  facet normal -0.587851 -0.808969 -0
    outer loop
      vertex 50.2771 121.613 5
      vertex 48.7771 122.703 3
      vertex 50.2771 121.613 3
    endloop
  endfacet
  facet normal -0.951046 -0.309049 0
    outer loop
      vertex 50.85 119.85 3
      vertex 50.2771 121.613 5
      vertex 50.2771 121.613 3
    endloop
  endfacet
  facet normal -0.951046 -0.309049 0
    outer loop
      vertex 50.2771 121.613 5
      vertex 50.85 119.85 3
      vertex 50.85 119.85 5
    endloop
  endfacet
  facet normal 0 -1 0
    outer loop
      vertex 46.923 122.703 3
      vertex 48.7771 122.703 5
      vertex 46.923 122.703 5
    endloop
  endfacet
  facet normal 0 -1 -0
    outer loop
      vertex 48.7771 122.703 5
      vertex 46.923 122.703 3
      vertex 48.7771 122.703 3
    endloop
  endfacet
  facet normal 0.587851 -0.808969 0
    outer loop
      vertex 45.423 121.613 3
      vertex 46.923 122.703 5
      vertex 45.423 121.613 5
    endloop
  endfacet
  facet normal 0.587851 -0.808969 0
    outer loop
      vertex 46.923 122.703 5
      vertex 45.423 121.613 3
      vertex 46.923 122.703 3
    endloop
  endfacet
  facet normal -0.951046 0.309049 0
    outer loop
      vertex 50.2771 118.087 3
      vertex 50.85 119.85 5
      vertex 50.85 119.85 3
    endloop
  endfacet
  facet normal -0.951046 0.309049 0
    outer loop
      vertex 50.85 119.85 5
      vertex 50.2771 118.087 3
      vertex 50.2771 118.087 5
    endloop
  endfacet
  facet normal 0.587851 0.808969 -0
    outer loop
      vertex 46.923 116.997 3
      vertex 45.423 118.087 5
      vertex 46.923 116.997 5
    endloop
  endfacet
  facet normal 0.587851 0.808969 0
    outer loop
      vertex 45.423 118.087 5
      vertex 46.923 116.997 3
      vertex 45.423 118.087 3
    endloop
  endfacet
  facet normal 0 1 -0
    outer loop
      vertex 48.7771 116.997 3
      vertex 46.923 116.997 5
      vertex 48.7771 116.997 5
    endloop
  endfacet
  facet normal 0 1 0
    outer loop
      vertex 46.923 116.997 5
      vertex 48.7771 116.997 3
      vertex 46.923 116.997 3
    endloop
  endfacet
  facet normal -0.587851 0.808969 0
    outer loop
      vertex 50.2771 118.087 3
      vertex 48.7771 116.997 5
      vertex 50.2771 118.087 5
    endloop
  endfacet
  facet normal -0.587851 0.808969 0
    outer loop
      vertex 48.7771 116.997 5
      vertex 50.2771 118.087 3
      vertex 48.7771 116.997 3
    endloop
  endfacet
  facet normal 0.95103 -0.309098 0
    outer loop
      vertex 44.85 119.85 5
      vertex 45.423 121.613 3
      vertex 45.423 121.613 5
    endloop
  endfacet
  facet normal 0.95103 -0.309098 0
    outer loop
      vertex 45.423 121.613 3
      vertex 44.85 119.85 5
      vertex 44.85 119.85 3
    endloop
  endfacet
  facet normal 0 0 1
    outer loop
      vertex 49.35 119.85 3
      vertex 50.85 119.85 3
      vertex 50.2771 121.613 3
    endloop
  endfacet
  facet normal 0 0 1
    outer loop
      vertex 50.85 119.85 3
      vertex 49.35 119.85 3
      vertex 50.2771 118.087 3
    endloop
  endfacet
  facet normal 0 0 1
    outer loop
      vertex 48.3135 121.277 3
      vertex 50.2771 121.613 3
      vertex 48.7771 122.703 3
    endloop
  endfacet
  facet normal 0 0 1
    outer loop
      vertex 50.2771 121.613 3
      vertex 48.3135 121.277 3
      vertex 49.35 119.85 3
    endloop
  endfacet
  facet normal -0 0 1
    outer loop
      vertex 46.923 122.703 3
      vertex 48.3135 121.277 3
      vertex 48.7771 122.703 3
    endloop
  endfacet
  facet normal 0 0 1
    outer loop
      vertex 46.923 122.703 3
      vertex 46.6365 120.732 3
      vertex 48.3135 121.277 3
    endloop
  endfacet
  facet normal 0 0 1
    outer loop
      vertex 44.85 119.85 3
      vertex 46.6365 120.732 3
      vertex 45.423 121.613 3
    endloop
  endfacet
  facet normal -0 0 1
    outer loop
      vertex 45.423 121.613 3
      vertex 46.6365 120.732 3
      vertex 46.923 122.703 3
    endloop
  endfacet
  facet normal -0 0 1
    outer loop
      vertex 48.3135 118.423 3
      vertex 50.2771 118.087 3
      vertex 49.35 119.85 3
    endloop
  endfacet
  facet normal 0 0 1
    outer loop
      vertex 50.2771 118.087 3
      vertex 48.3135 118.423 3
      vertex 48.7771 116.997 3
    endloop
  endfacet
  facet normal 0 0 1
    outer loop
      vertex 48.3135 118.423 3
      vertex 46.923 116.997 3
      vertex 48.7771 116.997 3
    endloop
  endfacet
  facet normal 0 0 1
    outer loop
      vertex 46.6365 118.968 3
      vertex 46.923 116.997 3
      vertex 48.3135 118.423 3
    endloop
  endfacet
  facet normal 0 0 1
    outer loop
      vertex 46.6365 120.732 3
      vertex 44.85 119.85 3
      vertex 46.6365 118.968 3
    endloop
  endfacet
  facet normal 0 0 1
    outer loop
      vertex 46.6365 118.968 3
      vertex 45.423 118.087 3
      vertex 46.923 116.997 3
    endloop
  endfacet
  facet normal 0 0 1
    outer loop
      vertex 46.6365 118.968 3
      vertex 44.85 119.85 3
      vertex 45.423 118.087 3
    endloop
  endfacet
  facet normal 0.309022 0.951055 -0
    outer loop
      vertex 48.3135 6.42342 0
      vertex 46.6365 6.96832 3
      vertex 48.3135 6.42342 3
    endloop
  endfacet
  facet normal 0.309022 0.951055 0
    outer loop
      vertex 46.6365 6.96832 3
      vertex 48.3135 6.42342 0
      vertex 46.6365 6.96832 0
    endloop
  endfacet
  facet normal 0.309022 -0.951055 0
    outer loop
      vertex 46.6365 8.73168 0
      vertex 48.3135 9.27658 3
      vertex 46.6365 8.73168 3
    endloop
  endfacet
  facet normal 0.309022 -0.951055 0
    outer loop
      vertex 48.3135 9.27658 3
      vertex 46.6365 8.73168 0
      vertex 48.3135 9.27658 0
    endloop
  endfacet
  facet normal -0.809009 -0.587796 0
    outer loop
      vertex 49.35 7.85 0
      vertex 48.3135 9.27658 3
      vertex 48.3135 9.27658 0
    endloop
  endfacet
  facet normal -0.809009 -0.587796 0
    outer loop
      vertex 48.3135 9.27658 3
      vertex 49.35 7.85 0
      vertex 49.35 7.85 3
    endloop
  endfacet
  facet normal 1 -0 0
    outer loop
      vertex 46.6365 6.96832 3
      vertex 46.6365 8.73168 0
      vertex 46.6365 8.73168 3
    endloop
  endfacet
  facet normal 1 0 0
    outer loop
      vertex 46.6365 8.73168 0
      vertex 46.6365 6.96832 3
      vertex 46.6365 6.96832 0
    endloop
  endfacet
  facet normal -0.809009 0.587796 0
    outer loop
      vertex 48.3135 6.42342 0
      vertex 49.35 7.85 3
      vertex 49.35 7.85 0
    endloop
  endfacet
  facet normal -0.809009 0.587796 0
    outer loop
      vertex 49.35 7.85 3
      vertex 48.3135 6.42342 0
      vertex 48.3135 6.42342 3
    endloop
  endfacet
  facet normal 0.951049 0.309041 0
    outer loop
      vertex 45.423 6.08664 5
      vertex 44.85 7.85 3
      vertex 44.85 7.85 5
    endloop
  endfacet
  facet normal 0.951049 0.309041 0
    outer loop
      vertex 44.85 7.85 3
      vertex 45.423 6.08664 5
      vertex 45.423 6.08664 3
    endloop
  endfacet
  facet normal -0.587795 -0.80901 0
    outer loop
      vertex 48.7771 10.7032 3
      vertex 50.2771 9.61336 5
      vertex 48.7771 10.7032 5
    endloop
  endfacet
  facet normal -0.587795 -0.80901 -0
    outer loop
      vertex 50.2771 9.61336 5
      vertex 48.7771 10.7032 3
      vertex 50.2771 9.61336 3
    endloop
  endfacet
  facet normal -0.951065 -0.308992 0
    outer loop
      vertex 50.85 7.85 3
      vertex 50.2771 9.61336 5
      vertex 50.2771 9.61336 3
    endloop
  endfacet
  facet normal -0.951065 -0.308992 0
    outer loop
      vertex 50.2771 9.61336 5
      vertex 50.85 7.85 3
      vertex 50.85 7.85 5
    endloop
  endfacet
  facet normal 0 -1 0
    outer loop
      vertex 46.923 10.7032 3
      vertex 48.7771 10.7032 5
      vertex 46.923 10.7032 5
    endloop
  endfacet
  facet normal 0 -1 -0
    outer loop
      vertex 48.7771 10.7032 5
      vertex 46.923 10.7032 3
      vertex 48.7771 10.7032 3
    endloop
  endfacet
  facet normal 0.587795 -0.80901 0
    outer loop
      vertex 45.423 9.61336 3
      vertex 46.923 10.7032 5
      vertex 45.423 9.61336 5
    endloop
  endfacet
  facet normal 0.587795 -0.80901 0
    outer loop
      vertex 46.923 10.7032 5
      vertex 45.423 9.61336 3
      vertex 46.923 10.7032 3
    endloop
  endfacet
  facet normal -0.951065 0.308992 0
    outer loop
      vertex 50.2771 6.08664 3
      vertex 50.85 7.85 5
      vertex 50.85 7.85 3
    endloop
  endfacet
  facet normal -0.951065 0.308992 0
    outer loop
      vertex 50.85 7.85 5
      vertex 50.2771 6.08664 3
      vertex 50.2771 6.08664 5
    endloop
  endfacet
  facet normal 0.587784 0.809018 -0
    outer loop
      vertex 46.923 4.99683 3
      vertex 45.423 6.08664 5
      vertex 46.923 4.99683 5
    endloop
  endfacet
  facet normal 0.587784 0.809018 0
    outer loop
      vertex 45.423 6.08664 5
      vertex 46.923 4.99683 3
      vertex 45.423 6.08664 3
    endloop
  endfacet
  facet normal 0 1 -0
    outer loop
      vertex 48.7771 4.99683 3
      vertex 46.923 4.99683 5
      vertex 48.7771 4.99683 5
    endloop
  endfacet
  facet normal 0 1 0
    outer loop
      vertex 46.923 4.99683 5
      vertex 48.7771 4.99683 3
      vertex 46.923 4.99683 3
    endloop
  endfacet
  facet normal -0.587784 0.809018 0
    outer loop
      vertex 50.2771 6.08664 3
      vertex 48.7771 4.99683 5
      vertex 50.2771 6.08664 5
    endloop
  endfacet
  facet normal -0.587784 0.809018 0
    outer loop
      vertex 48.7771 4.99683 5
      vertex 50.2771 6.08664 3
      vertex 48.7771 4.99683 3
    endloop
  endfacet
  facet normal 0.951049 -0.309041 0
    outer loop
      vertex 44.85 7.85 5
      vertex 45.423 9.61336 3
      vertex 45.423 9.61336 5
    endloop
  endfacet
  facet normal 0.951049 -0.309041 0
    outer loop
      vertex 45.423 9.61336 3
      vertex 44.85 7.85 5
      vertex 44.85 7.85 3
    endloop
  endfacet
  facet normal 0 0 1
    outer loop
      vertex 49.35 7.85 3
      vertex 50.85 7.85 3
      vertex 50.2771 9.61336 3
    endloop
  endfacet
  facet normal 0 0 1
    outer loop
      vertex 50.85 7.85 3
      vertex 49.35 7.85 3
      vertex 50.2771 6.08664 3
    endloop
  endfacet
  facet normal 0 0 1
    outer loop
      vertex 48.3135 9.27658 3
      vertex 50.2771 9.61336 3
      vertex 48.7771 10.7032 3
    endloop
  endfacet
  facet normal 0 0 1
    outer loop
      vertex 50.2771 9.61336 3
      vertex 48.3135 9.27658 3
      vertex 49.35 7.85 3
    endloop
  endfacet
  facet normal -0 0 1
    outer loop
      vertex 46.923 10.7032 3
      vertex 48.3135 9.27658 3
      vertex 48.7771 10.7032 3
    endloop
  endfacet
  facet normal 0 0 1
    outer loop
      vertex 46.923 10.7032 3
      vertex 46.6365 8.73168 3
      vertex 48.3135 9.27658 3
    endloop
  endfacet
  facet normal 0 0 1
    outer loop
      vertex 44.85 7.85 3
      vertex 46.6365 8.73168 3
      vertex 45.423 9.61336 3
    endloop
  endfacet
  facet normal -0 0 1
    outer loop
      vertex 45.423 9.61336 3
      vertex 46.6365 8.73168 3
      vertex 46.923 10.7032 3
    endloop
  endfacet
  facet normal -0 0 1
    outer loop
      vertex 48.3135 6.42342 3
      vertex 50.2771 6.08664 3
      vertex 49.35 7.85 3
    endloop
  endfacet
  facet normal 0 0 1
    outer loop
      vertex 50.2771 6.08664 3
      vertex 48.3135 6.42342 3
      vertex 48.7771 4.99683 3
    endloop
  endfacet
  facet normal 0 0 1
    outer loop
      vertex 48.3135 6.42342 3
      vertex 46.923 4.99683 3
      vertex 48.7771 4.99683 3
    endloop
  endfacet
  facet normal 0 0 1
    outer loop
      vertex 46.6365 6.96832 3
      vertex 46.923 4.99683 3
      vertex 48.3135 6.42342 3
    endloop
  endfacet
  facet normal 0 0 1
    outer loop
      vertex 46.6365 8.73168 3
      vertex 44.85 7.85 3
      vertex 46.6365 6.96832 3
    endloop
  endfacet
  facet normal 0 0 1
    outer loop
      vertex 46.6365 6.96832 3
      vertex 45.423 6.08664 3
      vertex 46.923 4.99683 3
    endloop
  endfacet
  facet normal 0 0 1
    outer loop
      vertex 46.6365 6.96832 3
      vertex 44.85 7.85 3
      vertex 45.423 6.08664 3
    endloop
  endfacet
  facet normal 1 0 0
    outer loop
      vertex 42.5 127.85 35
      vertex 42.5 127.7 5
      vertex 42.5 127.85 5
    endloop
  endfacet
  facet normal 1 -0 0
    outer loop
      vertex 42.5 12.5 35
      vertex 42.5 127.7 5
      vertex 42.5 127.85 35
    endloop
  endfacet
  facet normal 1 0 0
    outer loop
      vertex 42.5 127.7 5
      vertex 42.5 12.5 35
      vertex 42.5 12.5 5
    endloop
  endfacet
  facet normal -0 0 1
    outer loop
      vertex 0 127.85 35
      vertex 42.5 12.5 35
      vertex 42.5 127.85 35
    endloop
  endfacet
  facet normal 0 0 1
    outer loop
      vertex 42.5 12.5 35
      vertex 0 127.85 35
      vertex 0 12.5 35
    endloop
  endfacet
  facet normal 0 1 -0
    outer loop
      vertex 42.5 127.85 5
      vertex 0 127.85 35
      vertex 42.5 127.85 35
    endloop
  endfacet
  facet normal 0 1 0
    outer loop
      vertex 0 127.85 35
      vertex 42.5 127.85 5
      vertex 0 127.85 5
    endloop
  endfacet
  facet normal 0 -1 0
    outer loop
      vertex 0 12.5 5
      vertex 42.5 12.5 35
      vertex 0 12.5 35
    endloop
  endfacet
  facet normal 0 -1 -0
    outer loop
      vertex 42.5 12.5 35
      vertex 0 12.5 5
      vertex 42.5 12.5 5
    endloop
  endfacet
  facet normal 0 0 -1
    outer loop
      vertex 0 17.5 29
      vertex 37.5 112.5 29
      vertex 37.5 17.5 29
    endloop
  endfacet
  facet normal -0 0 -1
    outer loop
      vertex 37.5 112.5 29
      vertex 0 17.5 29
      vertex 0 112.5 29
    endloop
  endfacet
  facet normal -1 0 0
    outer loop
      vertex 0 17.5 0
      vertex 0 12.5 5
      vertex 0 17.5 29
    endloop
  endfacet
  facet normal -1 0 0
    outer loop
      vertex 0 0 0
      vertex 0 12.5 5
      vertex 0 17.5 0
    endloop
  endfacet
  facet normal -1 -0 0
    outer loop
      vertex 0 12.5 5
      vertex 0 0 0
      vertex 0 0 5
    endloop
  endfacet
  facet normal -1 0 0
    outer loop
      vertex 0 127.7 0
      vertex 0 112.5 0
      vertex 0 127.7 5
    endloop
  endfacet
  facet normal -1 0 0
    outer loop
      vertex 0 127.7 5
      vertex 0 127.85 35
      vertex 0 127.85 5
    endloop
  endfacet
  facet normal -1 0 0
    outer loop
      vertex 0 112.5 29
      vertex 0 127.7 5
      vertex 0 112.5 0
    endloop
  endfacet
  facet normal -1 0 0
    outer loop
      vertex 0 127.7 5
      vertex 0 112.5 29
      vertex 0 127.85 35
    endloop
  endfacet
  facet normal -1 0 0
    outer loop
      vertex 0 12.5 35
      vertex 0 112.5 29
      vertex 0 17.5 29
    endloop
  endfacet
  facet normal -1 0 0
    outer loop
      vertex 0 112.5 29
      vertex 0 12.5 35
      vertex 0 127.85 35
    endloop
  endfacet
  facet normal -1 0 0
    outer loop
      vertex 0 12.5 35
      vertex 0 17.5 29
      vertex 0 12.5 5
    endloop
  endfacet
endsolid OpenSCAD_Model
