solid OpenSCAD_Model
  facet normal 1 -0 0
    outer loop
      vertex 55.7 0 5
      vertex 55.7 127.7 0
      vertex 55.7 127.7 5
    endloop
  endfacet
  facet normal 1 0 0
    outer loop
      vertex 55.7 127.7 0
      vertex 55.7 0 5
      vertex 55.7 0 0
    endloop
  endfacet
  facet normal 0 0 -1
    outer loop
      vertex 0 127.7 5
      vertex 42.5 127.85 5
      vertex 42.5 127.7 5
    endloop
  endfacet
  facet normal -0 0 -1
    outer loop
      vertex 42.5 127.85 5
      vertex 0 127.7 5
      vertex 0 127.85 5
    endloop
  endfacet
  facet normal -0 0 1
    outer loop
      vertex 52.4694 9.76342 5
      vertex 55.7 0 5
      vertex 52.4694 117.937 5
    endloop
  endfacet
  facet normal 0 0 1
    outer loop
      vertex 55.7 0 5
      vertex 52.4694 9.76342 5
      vertex 52.85 7.85 5
    endloop
  endfacet
  facet normal -0 0 1
    outer loop
      vertex 51.3855 116.314 5
      vertex 52.4694 9.76342 5
      vertex 52.4694 117.937 5
    endloop
  endfacet
  facet normal 0 0 1
    outer loop
      vertex 51.3855 116.314 5
      vertex 51.3855 11.3855 5
      vertex 52.4694 9.76342 5
    endloop
  endfacet
  facet normal -0 0 1
    outer loop
      vertex 49.7634 115.231 5
      vertex 51.3855 11.3855 5
      vertex 51.3855 116.314 5
    endloop
  endfacet
  facet normal 0 0 1
    outer loop
      vertex 49.7634 115.231 5
      vertex 49.7634 12.4694 5
      vertex 51.3855 11.3855 5
    endloop
  endfacet
  facet normal -0 0 1
    outer loop
      vertex 47.85 114.85 5
      vertex 49.7634 12.4694 5
      vertex 49.7634 115.231 5
    endloop
  endfacet
  facet normal 0 0 1
    outer loop
      vertex 47.85 114.85 5
      vertex 47.85 12.85 5
      vertex 49.7634 12.4694 5
    endloop
  endfacet
  facet normal 0 0 1
    outer loop
      vertex 42.5 12.5 5
      vertex 47.85 114.85 5
      vertex 45.9366 115.231 5
    endloop
  endfacet
  facet normal 0 0 1
    outer loop
      vertex 47.85 114.85 5
      vertex 42.5 12.5 5
      vertex 47.85 12.85 5
    endloop
  endfacet
  facet normal 0 0 1
    outer loop
      vertex 42.5 12.5 5
      vertex 45.9366 115.231 5
      vertex 44.3145 116.314 5
    endloop
  endfacet
  facet normal 0 0 1
    outer loop
      vertex 47.85 12.85 5
      vertex 42.5 12.5 5
      vertex 45.9366 12.4694 5
    endloop
  endfacet
  facet normal 0 0 1
    outer loop
      vertex 42.5 12.5 5
      vertex 44.3145 116.314 5
      vertex 43.2306 117.937 5
    endloop
  endfacet
  facet normal 0 0 1
    outer loop
      vertex 45.9366 12.4694 5
      vertex 42.5 12.5 5
      vertex 44.3145 11.3855 5
    endloop
  endfacet
  facet normal 0 0 1
    outer loop
      vertex 42.5 12.5 5
      vertex 43.2306 117.937 5
      vertex 42.85 119.85 5
    endloop
  endfacet
  facet normal 0 0 1
    outer loop
      vertex 44.3145 11.3855 5
      vertex 42.5 12.5 5
      vertex 43.2306 9.76342 5
    endloop
  endfacet
  facet normal 0 0 1
    outer loop
      vertex 52.4694 117.937 5
      vertex 55.7 127.7 5
      vertex 52.85 119.85 5
    endloop
  endfacet
  facet normal 0 0 1
    outer loop
      vertex 55.7 127.7 5
      vertex 52.4694 121.763 5
      vertex 52.85 119.85 5
    endloop
  endfacet
  facet normal 0 0 1
    outer loop
      vertex 55.7 127.7 5
      vertex 51.3855 123.386 5
      vertex 52.4694 121.763 5
    endloop
  endfacet
  facet normal 0 0 1
    outer loop
      vertex 55.7 127.7 5
      vertex 49.7634 124.469 5
      vertex 51.3855 123.386 5
    endloop
  endfacet
  facet normal 0 0 1
    outer loop
      vertex 55.7 127.7 5
      vertex 47.85 124.85 5
      vertex 49.7634 124.469 5
    endloop
  endfacet
  facet normal -0 0 1
    outer loop
      vertex 42.5 127.7 5
      vertex 47.85 124.85 5
      vertex 55.7 127.7 5
    endloop
  endfacet
  facet normal 0 0 1
    outer loop
      vertex 42.5 12.5 5
      vertex 42.85 119.85 5
      vertex 42.5 127.7 5
    endloop
  endfacet
  facet normal 0 0 1
    outer loop
      vertex 43.2306 121.763 5
      vertex 42.5 127.7 5
      vertex 42.85 119.85 5
    endloop
  endfacet
  facet normal 0 0 1
    outer loop
      vertex 44.3145 123.386 5
      vertex 42.5 127.7 5
      vertex 43.2306 121.763 5
    endloop
  endfacet
  facet normal 0 0 1
    outer loop
      vertex 45.9366 124.469 5
      vertex 42.5 127.7 5
      vertex 44.3145 123.386 5
    endloop
  endfacet
  facet normal 0 0 1
    outer loop
      vertex 47.85 124.85 5
      vertex 42.5 127.7 5
      vertex 45.9366 124.469 5
    endloop
  endfacet
  facet normal 0 0 1
    outer loop
      vertex 55.7 127.7 5
      vertex 52.4694 117.937 5
      vertex 55.7 0 5
    endloop
  endfacet
  facet normal -0 0 1
    outer loop
      vertex 52.4694 5.93658 5
      vertex 55.7 0 5
      vertex 52.85 7.85 5
    endloop
  endfacet
  facet normal -0 0 1
    outer loop
      vertex 51.3855 4.31447 5
      vertex 55.7 0 5
      vertex 52.4694 5.93658 5
    endloop
  endfacet
  facet normal -0 0 1
    outer loop
      vertex 49.7634 3.2306 5
      vertex 55.7 0 5
      vertex 51.3855 4.31447 5
    endloop
  endfacet
  facet normal -0 0 1
    outer loop
      vertex 47.85 2.85 5
      vertex 55.7 0 5
      vertex 49.7634 3.2306 5
    endloop
  endfacet
  facet normal 0 0 1
    outer loop
      vertex 45.9366 3.2306 5
      vertex 55.7 0 5
      vertex 47.85 2.85 5
    endloop
  endfacet
  facet normal 0 0 1
    outer loop
      vertex 43.2306 9.76342 5
      vertex 42.5 12.5 5
      vertex 42.85 7.85 5
    endloop
  endfacet
  facet normal -0 0 1
    outer loop
      vertex 0 12.5 5
      vertex 42.85 7.85 5
      vertex 42.5 12.5 5
    endloop
  endfacet
  facet normal 0 0 1
    outer loop
      vertex 0 0 5
      vertex 42.85 7.85 5
      vertex 0 12.5 5
    endloop
  endfacet
  facet normal 0 0 1
    outer loop
      vertex 42.85 7.85 5
      vertex 0 0 5
      vertex 43.2306 5.93658 5
    endloop
  endfacet
  facet normal 0 0 1
    outer loop
      vertex 43.2306 5.93658 5
      vertex 0 0 5
      vertex 44.3145 4.31447 5
    endloop
  endfacet
  facet normal 0 0 1
    outer loop
      vertex 44.3145 4.31447 5
      vertex 0 0 5
      vertex 45.9366 3.2306 5
    endloop
  endfacet
  facet normal 0 0 1
    outer loop
      vertex 45.9366 3.2306 5
      vertex 0 0 5
      vertex 55.7 0 5
    endloop
  endfacet
  facet normal 0 0 -1
    outer loop
      vertex 50.2771 118.087 0
      vertex 55.7 127.7 0
      vertex 50.2771 9.61336 0
    endloop
  endfacet
  facet normal 0 0 -1
    outer loop
      vertex 55.7 127.7 0
      vertex 50.2771 118.087 0
      vertex 50.85 119.85 0
    endloop
  endfacet
  facet normal 0 0 -1
    outer loop
      vertex 48.7771 10.7032 0
      vertex 50.2771 118.087 0
      vertex 50.2771 9.61336 0
    endloop
  endfacet
  facet normal 0 0 -1
    outer loop
      vertex 48.7771 10.7032 0
      vertex 48.7771 116.997 0
      vertex 50.2771 118.087 0
    endloop
  endfacet
  facet normal 0 0 -1
    outer loop
      vertex 37.5 17.5 0
      vertex 48.7771 10.7032 0
      vertex 46.923 10.7032 0
    endloop
  endfacet
  facet normal 0 0 -1
    outer loop
      vertex 48.7771 10.7032 0
      vertex 37.5 17.5 0
      vertex 48.7771 116.997 0
    endloop
  endfacet
  facet normal 0 0 -1
    outer loop
      vertex 37.5 17.5 0
      vertex 46.923 10.7032 0
      vertex 45.423 9.61336 0
    endloop
  endfacet
  facet normal 0 0 -1
    outer loop
      vertex 37.5 112.5 0
      vertex 48.7771 116.997 0
      vertex 37.5 17.5 0
    endloop
  endfacet
  facet normal 0 0 -1
    outer loop
      vertex 37.5 17.5 0
      vertex 45.423 9.61336 0
      vertex 44.85 7.85 0
    endloop
  endfacet
  facet normal -0 0 -1
    outer loop
      vertex 48.7771 116.997 0
      vertex 37.5 112.5 0
      vertex 46.923 116.997 0
    endloop
  endfacet
  facet normal 0 0 -1
    outer loop
      vertex 50.2771 9.61336 0
      vertex 55.7 0 0
      vertex 50.85 7.85 0
    endloop
  endfacet
  facet normal 0 0 -1
    outer loop
      vertex 55.7 0 0
      vertex 50.2771 6.08664 0
      vertex 50.85 7.85 0
    endloop
  endfacet
  facet normal 0 0 -1
    outer loop
      vertex 55.7 0 0
      vertex 48.7771 4.99683 0
      vertex 50.2771 6.08664 0
    endloop
  endfacet
  facet normal 0 0 -1
    outer loop
      vertex 55.7 0 0
      vertex 46.923 4.99683 0
      vertex 48.7771 4.99683 0
    endloop
  endfacet
  facet normal -0 0 -1
    outer loop
      vertex 46.923 116.997 0
      vertex 37.5 112.5 0
      vertex 45.423 118.087 0
    endloop
  endfacet
  facet normal 0 0 -1
    outer loop
      vertex 45.423 6.08664 0
      vertex 37.5 17.5 0
      vertex 44.85 7.85 0
    endloop
  endfacet
  facet normal 0 0 -1
    outer loop
      vertex 0 0 0
      vertex 46.923 4.99683 0
      vertex 55.7 0 0
    endloop
  endfacet
  facet normal 0 0 -1
    outer loop
      vertex 0 0 0
      vertex 45.423 6.08664 0
      vertex 46.923 4.99683 0
    endloop
  endfacet
  facet normal 0 0 -1
    outer loop
      vertex 0 0 0
      vertex 37.5 17.5 0
      vertex 45.423 6.08664 0
    endloop
  endfacet
  facet normal -0 0 -1
    outer loop
      vertex 37.5 17.5 0
      vertex 0 0 0
      vertex 0 17.5 0
    endloop
  endfacet
  facet normal 0 0 -1
    outer loop
      vertex 55.7 0 0
      vertex 50.2771 9.61336 0
      vertex 55.7 127.7 0
    endloop
  endfacet
  facet normal 0 0 -1
    outer loop
      vertex 50.2771 121.613 0
      vertex 55.7 127.7 0
      vertex 50.85 119.85 0
    endloop
  endfacet
  facet normal 0 0 -1
    outer loop
      vertex 48.7771 122.703 0
      vertex 55.7 127.7 0
      vertex 50.2771 121.613 0
    endloop
  endfacet
  facet normal 0 0 -1
    outer loop
      vertex 46.923 122.703 0
      vertex 55.7 127.7 0
      vertex 48.7771 122.703 0
    endloop
  endfacet
  facet normal -0 0 -1
    outer loop
      vertex 45.423 118.087 0
      vertex 37.5 112.5 0
      vertex 44.85 119.85 0
    endloop
  endfacet
  facet normal 0 0 -1
    outer loop
      vertex 37.5 112.5 0
      vertex 45.423 121.613 0
      vertex 44.85 119.85 0
    endloop
  endfacet
  facet normal 0 0 -1
    outer loop
      vertex 0 127.7 0
      vertex 37.5 112.5 0
      vertex 0 112.5 0
    endloop
  endfacet
  facet normal 0 0 -1
    outer loop
      vertex 37.5 112.5 0
      vertex 0 127.7 0
      vertex 45.423 121.613 0
    endloop
  endfacet
  facet normal 0 0 -1
    outer loop
      vertex 45.423 121.613 0
      vertex 0 127.7 0
      vertex 46.923 122.703 0
    endloop
  endfacet
  facet normal 0 0 -1
    outer loop
      vertex 46.923 122.703 0
      vertex 0 127.7 0
      vertex 55.7 127.7 0
    endloop
  endfacet
  facet normal 0 1 -0
    outer loop
      vertex 55.7 127.7 0
      vertex 42.5 127.7 5
      vertex 55.7 127.7 5
    endloop
  endfacet
  facet normal 0 1 0
    outer loop
      vertex 0 127.7 0
      vertex 42.5 127.7 5
      vertex 55.7 127.7 0
    endloop
  endfacet
  facet normal 0 1 0
    outer loop
      vertex 42.5 127.7 5
      vertex 0 127.7 0
      vertex 0 127.7 5
    endloop
  endfacet
  facet normal 0 -1 0
    outer loop
      vertex 0 0 0
      vertex 55.7 0 5
      vertex 0 0 5
    endloop
  endfacet
  facet normal 0 -1 -0
    outer loop
      vertex 55.7 0 5
      vertex 0 0 0
      vertex 55.7 0 0
    endloop
  endfacet
  facet normal -1 0 0
    outer loop
      vertex 37.5 17.5 0
      vertex 37.5 112.5 39
      vertex 37.5 112.5 0
    endloop
  endfacet
  facet normal -1 -0 0
    outer loop
      vertex 37.5 112.5 39
      vertex 37.5 17.5 0
      vertex 37.5 17.5 39
    endloop
  endfacet
  facet normal 0 -1 0
    outer loop
      vertex 0 112.5 0
      vertex 37.5 112.5 39
      vertex 0 112.5 39
    endloop
  endfacet
  facet normal 0 -1 -0
    outer loop
      vertex 37.5 112.5 39
      vertex 0 112.5 0
      vertex 37.5 112.5 0
    endloop
  endfacet
  facet normal 0 1 -0
    outer loop
      vertex 37.5 17.5 0
      vertex 0 17.5 39
      vertex 37.5 17.5 39
    endloop
  endfacet
  facet normal 0 1 0
    outer loop
      vertex 0 17.5 39
      vertex 37.5 17.5 0
      vertex 0 17.5 0
    endloop
  endfacet
  facet normal 0.95103 0.309098 0
    outer loop
      vertex 45.423 118.087 3
      vertex 44.85 119.85 0
      vertex 44.85 119.85 3
    endloop
  endfacet
  facet normal 0.95103 0.309098 0
    outer loop
      vertex 44.85 119.85 0
      vertex 45.423 118.087 3
      vertex 45.423 118.087 0
    endloop
  endfacet
  facet normal -0.587851 -0.808969 0
    outer loop
      vertex 48.7771 122.703 0
      vertex 50.2771 121.613 3
      vertex 48.7771 122.703 3
    endloop
  endfacet
  facet normal -0.587851 -0.808969 -0
    outer loop
      vertex 50.2771 121.613 3
      vertex 48.7771 122.703 0
      vertex 50.2771 121.613 0
    endloop
  endfacet
  facet normal -0.951046 -0.309049 0
    outer loop
      vertex 50.85 119.85 0
      vertex 50.2771 121.613 3
      vertex 50.2771 121.613 0
    endloop
  endfacet
  facet normal -0.951046 -0.309049 0
    outer loop
      vertex 50.2771 121.613 3
      vertex 50.85 119.85 0
      vertex 50.85 119.85 3
    endloop
  endfacet
  facet normal 0 -1 0
    outer loop
      vertex 46.923 122.703 0
      vertex 48.7771 122.703 3
      vertex 46.923 122.703 3
    endloop
  endfacet
  facet normal 0 -1 -0
    outer loop
      vertex 48.7771 122.703 3
      vertex 46.923 122.703 0
      vertex 48.7771 122.703 0
    endloop
  endfacet
  facet normal 0.587851 -0.808969 0
    outer loop
      vertex 45.423 121.613 0
      vertex 46.923 122.703 3
      vertex 45.423 121.613 3
    endloop
  endfacet
  facet normal 0.587851 -0.808969 0
    outer loop
      vertex 46.923 122.703 3
      vertex 45.423 121.613 0
      vertex 46.923 122.703 0
    endloop
  endfacet
  facet normal -0.951046 0.309049 0
    outer loop
      vertex 50.2771 118.087 0
      vertex 50.85 119.85 3
      vertex 50.85 119.85 0
    endloop
  endfacet
  facet normal -0.951046 0.309049 0
    outer loop
      vertex 50.85 119.85 3
      vertex 50.2771 118.087 0
      vertex 50.2771 118.087 3
    endloop
  endfacet
  facet normal 0.587851 0.808969 -0
    outer loop
      vertex 46.923 116.997 0
      vertex 45.423 118.087 3
      vertex 46.923 116.997 3
    endloop
  endfacet
  facet normal 0.587851 0.808969 0
    outer loop
      vertex 45.423 118.087 3
      vertex 46.923 116.997 0
      vertex 45.423 118.087 0
    endloop
  endfacet
  facet normal 0 1 -0
    outer loop
      vertex 48.7771 116.997 0
      vertex 46.923 116.997 3
      vertex 48.7771 116.997 3
    endloop
  endfacet
  facet normal 0 1 0
    outer loop
      vertex 46.923 116.997 3
      vertex 48.7771 116.997 0
      vertex 46.923 116.997 0
    endloop
  endfacet
  facet normal -0.587851 0.808969 0
    outer loop
      vertex 50.2771 118.087 0
      vertex 48.7771 116.997 3
      vertex 50.2771 118.087 3
    endloop
  endfacet
  facet normal -0.587851 0.808969 0
    outer loop
      vertex 48.7771 116.997 3
      vertex 50.2771 118.087 0
      vertex 48.7771 116.997 0
    endloop
  endfacet
  facet normal 0.95103 -0.309098 0
    outer loop
      vertex 44.85 119.85 3
      vertex 45.423 121.613 0
      vertex 45.423 121.613 3
    endloop
  endfacet
  facet normal 0.95103 -0.309098 0
    outer loop
      vertex 45.423 121.613 0
      vertex 44.85 119.85 3
      vertex 44.85 119.85 0
    endloop
  endfacet
  facet normal 0.980777 -0.19513 0
    outer loop
      vertex 42.85 119.85 5
      vertex 43.2306 121.763 3
      vertex 43.2306 121.763 5
    endloop
  endfacet
  facet normal 0.980777 -0.19513 0
    outer loop
      vertex 43.2306 121.763 3
      vertex 42.85 119.85 5
      vertex 42.85 119.85 3
    endloop
  endfacet
  facet normal -0.831601 -0.555374 0
    outer loop
      vertex 52.4694 121.763 3
      vertex 51.3855 123.386 5
      vertex 51.3855 123.386 3
    endloop
  endfacet
  facet normal -0.831601 -0.555374 0
    outer loop
      vertex 51.3855 123.386 5
      vertex 52.4694 121.763 3
      vertex 52.4694 121.763 5
    endloop
  endfacet
  facet normal -0.980777 -0.19513 0
    outer loop
      vertex 52.85 119.85 3
      vertex 52.4694 121.763 5
      vertex 52.4694 121.763 3
    endloop
  endfacet
  facet normal -0.980777 -0.19513 0
    outer loop
      vertex 52.4694 121.763 5
      vertex 52.85 119.85 3
      vertex 52.85 119.85 5
    endloop
  endfacet
  facet normal -0.555268 -0.831671 0
    outer loop
      vertex 49.7634 124.469 3
      vertex 51.3855 123.386 5
      vertex 49.7634 124.469 5
    endloop
  endfacet
  facet normal -0.555268 -0.831671 -0
    outer loop
      vertex 51.3855 123.386 5
      vertex 49.7634 124.469 3
      vertex 51.3855 123.386 3
    endloop
  endfacet
  facet normal 0.195288 -0.980746 0
    outer loop
      vertex 45.9366 124.469 3
      vertex 47.85 124.85 5
      vertex 45.9366 124.469 5
    endloop
  endfacet
  facet normal 0.195288 -0.980746 0
    outer loop
      vertex 47.85 124.85 5
      vertex 45.9366 124.469 3
      vertex 47.85 124.85 3
    endloop
  endfacet
  facet normal -0.980777 0.19513 0
    outer loop
      vertex 52.4694 117.937 3
      vertex 52.85 119.85 5
      vertex 52.85 119.85 3
    endloop
  endfacet
  facet normal -0.980777 0.19513 0
    outer loop
      vertex 52.85 119.85 5
      vertex 52.4694 117.937 3
      vertex 52.4694 117.937 5
    endloop
  endfacet
  facet normal 0.555268 -0.831671 0
    outer loop
      vertex 44.3145 123.386 3
      vertex 45.9366 124.469 5
      vertex 44.3145 123.386 5
    endloop
  endfacet
  facet normal 0.555268 -0.831671 0
    outer loop
      vertex 45.9366 124.469 5
      vertex 44.3145 123.386 3
      vertex 45.9366 124.469 3
    endloop
  endfacet
  facet normal 0.195288 0.980746 -0
    outer loop
      vertex 47.85 114.85 3
      vertex 45.9366 115.231 5
      vertex 47.85 114.85 5
    endloop
  endfacet
  facet normal 0.195288 0.980746 0
    outer loop
      vertex 45.9366 115.231 5
      vertex 47.85 114.85 3
      vertex 45.9366 115.231 3
    endloop
  endfacet
  facet normal -0.195288 -0.980746 0
    outer loop
      vertex 47.85 124.85 3
      vertex 49.7634 124.469 5
      vertex 47.85 124.85 5
    endloop
  endfacet
  facet normal -0.195288 -0.980746 -0
    outer loop
      vertex 49.7634 124.469 5
      vertex 47.85 124.85 3
      vertex 49.7634 124.469 3
    endloop
  endfacet
  facet normal 0.831601 -0.555374 0
    outer loop
      vertex 43.2306 121.763 5
      vertex 44.3145 123.386 3
      vertex 44.3145 123.386 5
    endloop
  endfacet
  facet normal 0.831601 -0.555374 0
    outer loop
      vertex 44.3145 123.386 3
      vertex 43.2306 121.763 5
      vertex 43.2306 121.763 3
    endloop
  endfacet
  facet normal -0.555268 0.831671 0
    outer loop
      vertex 51.3855 116.314 3
      vertex 49.7634 115.231 5
      vertex 51.3855 116.314 5
    endloop
  endfacet
  facet normal -0.555268 0.831671 0
    outer loop
      vertex 49.7634 115.231 5
      vertex 51.3855 116.314 3
      vertex 49.7634 115.231 3
    endloop
  endfacet
  facet normal -0.831601 0.555374 0
    outer loop
      vertex 51.3855 116.314 3
      vertex 52.4694 117.937 5
      vertex 52.4694 117.937 3
    endloop
  endfacet
  facet normal -0.831601 0.555374 0
    outer loop
      vertex 52.4694 117.937 5
      vertex 51.3855 116.314 3
      vertex 51.3855 116.314 5
    endloop
  endfacet
  facet normal 0.831601 0.555374 0
    outer loop
      vertex 44.3145 116.314 5
      vertex 43.2306 117.937 3
      vertex 43.2306 117.937 5
    endloop
  endfacet
  facet normal 0.831601 0.555374 0
    outer loop
      vertex 43.2306 117.937 3
      vertex 44.3145 116.314 5
      vertex 44.3145 116.314 3
    endloop
  endfacet
  facet normal -0.195288 0.980746 0
    outer loop
      vertex 49.7634 115.231 3
      vertex 47.85 114.85 5
      vertex 49.7634 115.231 5
    endloop
  endfacet
  facet normal -0.195288 0.980746 0
    outer loop
      vertex 47.85 114.85 5
      vertex 49.7634 115.231 3
      vertex 47.85 114.85 3
    endloop
  endfacet
  facet normal 0.980777 0.19513 0
    outer loop
      vertex 43.2306 117.937 5
      vertex 42.85 119.85 3
      vertex 42.85 119.85 5
    endloop
  endfacet
  facet normal 0.980777 0.19513 0
    outer loop
      vertex 42.85 119.85 3
      vertex 43.2306 117.937 5
      vertex 43.2306 117.937 3
    endloop
  endfacet
  facet normal 0 0 1
    outer loop
      vertex 50.85 119.85 3
      vertex 52.85 119.85 3
      vertex 52.4694 121.763 3
    endloop
  endfacet
  facet normal 0 0 1
    outer loop
      vertex 50.2771 121.613 3
      vertex 52.4694 121.763 3
      vertex 51.3855 123.386 3
    endloop
  endfacet
  facet normal 0 0 1
    outer loop
      vertex 52.85 119.85 3
      vertex 50.85 119.85 3
      vertex 52.4694 117.937 3
    endloop
  endfacet
  facet normal -0 0 1
    outer loop
      vertex 50.2771 118.087 3
      vertex 52.4694 117.937 3
      vertex 50.85 119.85 3
    endloop
  endfacet
  facet normal 0 0 1
    outer loop
      vertex 52.4694 121.763 3
      vertex 50.2771 121.613 3
      vertex 50.85 119.85 3
    endloop
  endfacet
  facet normal 0 0 1
    outer loop
      vertex 48.7771 122.703 3
      vertex 51.3855 123.386 3
      vertex 49.7634 124.469 3
    endloop
  endfacet
  facet normal 0 0 1
    outer loop
      vertex 51.3855 123.386 3
      vertex 48.7771 122.703 3
      vertex 50.2771 121.613 3
    endloop
  endfacet
  facet normal 0 0 1
    outer loop
      vertex 47.85 124.85 3
      vertex 48.7771 122.703 3
      vertex 49.7634 124.469 3
    endloop
  endfacet
  facet normal 0 0 1
    outer loop
      vertex 47.85 124.85 3
      vertex 46.923 122.703 3
      vertex 48.7771 122.703 3
    endloop
  endfacet
  facet normal -0 0 1
    outer loop
      vertex 45.9366 124.469 3
      vertex 46.923 122.703 3
      vertex 47.85 124.85 3
    endloop
  endfacet
  facet normal -0 0 1
    outer loop
      vertex 44.3145 123.386 3
      vertex 46.923 122.703 3
      vertex 45.9366 124.469 3
    endloop
  endfacet
  facet normal 0 0 1
    outer loop
      vertex 46.923 122.703 3
      vertex 44.3145 123.386 3
      vertex 45.423 121.613 3
    endloop
  endfacet
  facet normal -0 0 1
    outer loop
      vertex 43.2306 121.763 3
      vertex 45.423 121.613 3
      vertex 44.3145 123.386 3
    endloop
  endfacet
  facet normal 0 0 1
    outer loop
      vertex 52.4694 117.937 3
      vertex 50.2771 118.087 3
      vertex 51.3855 116.314 3
    endloop
  endfacet
  facet normal -0 0 1
    outer loop
      vertex 48.7771 116.997 3
      vertex 51.3855 116.314 3
      vertex 50.2771 118.087 3
    endloop
  endfacet
  facet normal 0 0 1
    outer loop
      vertex 51.3855 116.314 3
      vertex 48.7771 116.997 3
      vertex 49.7634 115.231 3
    endloop
  endfacet
  facet normal 0 0 1
    outer loop
      vertex 48.7771 116.997 3
      vertex 47.85 114.85 3
      vertex 49.7634 115.231 3
    endloop
  endfacet
  facet normal -0 0 1
    outer loop
      vertex 46.923 116.997 3
      vertex 47.85 114.85 3
      vertex 48.7771 116.997 3
    endloop
  endfacet
  facet normal 0 0 1
    outer loop
      vertex 46.923 116.997 3
      vertex 45.9366 115.231 3
      vertex 47.85 114.85 3
    endloop
  endfacet
  facet normal 0 0 1
    outer loop
      vertex 44.3145 116.314 3
      vertex 46.923 116.997 3
      vertex 45.423 118.087 3
    endloop
  endfacet
  facet normal 0 0 1
    outer loop
      vertex 43.2306 117.937 3
      vertex 45.423 118.087 3
      vertex 44.85 119.85 3
    endloop
  endfacet
  facet normal 0 0 1
    outer loop
      vertex 46.923 116.997 3
      vertex 44.3145 116.314 3
      vertex 45.9366 115.231 3
    endloop
  endfacet
  facet normal 0 0 1
    outer loop
      vertex 45.423 121.613 3
      vertex 43.2306 121.763 3
      vertex 44.85 119.85 3
    endloop
  endfacet
  facet normal 0 0 1
    outer loop
      vertex 42.85 119.85 3
      vertex 44.85 119.85 3
      vertex 43.2306 121.763 3
    endloop
  endfacet
  facet normal 0 0 1
    outer loop
      vertex 45.423 118.087 3
      vertex 43.2306 117.937 3
      vertex 44.3145 116.314 3
    endloop
  endfacet
  facet normal 0 0 1
    outer loop
      vertex 44.85 119.85 3
      vertex 42.85 119.85 3
      vertex 43.2306 117.937 3
    endloop
  endfacet
  facet normal 0.555268 0.831671 -0
    outer loop
      vertex 45.9366 115.231 3
      vertex 44.3145 116.314 5
      vertex 45.9366 115.231 5
    endloop
  endfacet
  facet normal 0.555268 0.831671 0
    outer loop
      vertex 44.3145 116.314 5
      vertex 45.9366 115.231 3
      vertex 44.3145 116.314 3
    endloop
  endfacet
  facet normal 0.951049 0.309041 0
    outer loop
      vertex 45.423 6.08664 3
      vertex 44.85 7.85 0
      vertex 44.85 7.85 3
    endloop
  endfacet
  facet normal 0.951049 0.309041 0
    outer loop
      vertex 44.85 7.85 0
      vertex 45.423 6.08664 3
      vertex 45.423 6.08664 0
    endloop
  endfacet
  facet normal -0.587795 -0.80901 0
    outer loop
      vertex 48.7771 10.7032 0
      vertex 50.2771 9.61336 3
      vertex 48.7771 10.7032 3
    endloop
  endfacet
  facet normal -0.587795 -0.80901 -0
    outer loop
      vertex 50.2771 9.61336 3
      vertex 48.7771 10.7032 0
      vertex 50.2771 9.61336 0
    endloop
  endfacet
  facet normal -0.951065 -0.308992 0
    outer loop
      vertex 50.85 7.85 0
      vertex 50.2771 9.61336 3
      vertex 50.2771 9.61336 0
    endloop
  endfacet
  facet normal -0.951065 -0.308992 0
    outer loop
      vertex 50.2771 9.61336 3
      vertex 50.85 7.85 0
      vertex 50.85 7.85 3
    endloop
  endfacet
  facet normal 0 -1 0
    outer loop
      vertex 46.923 10.7032 0
      vertex 48.7771 10.7032 3
      vertex 46.923 10.7032 3
    endloop
  endfacet
  facet normal 0 -1 -0
    outer loop
      vertex 48.7771 10.7032 3
      vertex 46.923 10.7032 0
      vertex 48.7771 10.7032 0
    endloop
  endfacet
  facet normal 0.587795 -0.80901 0
    outer loop
      vertex 45.423 9.61336 0
      vertex 46.923 10.7032 3
      vertex 45.423 9.61336 3
    endloop
  endfacet
  facet normal 0.587795 -0.80901 0
    outer loop
      vertex 46.923 10.7032 3
      vertex 45.423 9.61336 0
      vertex 46.923 10.7032 0
    endloop
  endfacet
  facet normal -0.951065 0.308992 0
    outer loop
      vertex 50.2771 6.08664 0
      vertex 50.85 7.85 3
      vertex 50.85 7.85 0
    endloop
  endfacet
  facet normal -0.951065 0.308992 0
    outer loop
      vertex 50.85 7.85 3
      vertex 50.2771 6.08664 0
      vertex 50.2771 6.08664 3
    endloop
  endfacet
  facet normal 0.587784 0.809018 -0
    outer loop
      vertex 46.923 4.99683 0
      vertex 45.423 6.08664 3
      vertex 46.923 4.99683 3
    endloop
  endfacet
  facet normal 0.587784 0.809018 0
    outer loop
      vertex 45.423 6.08664 3
      vertex 46.923 4.99683 0
      vertex 45.423 6.08664 0
    endloop
  endfacet
  facet normal 0 1 -0
    outer loop
      vertex 48.7771 4.99683 0
      vertex 46.923 4.99683 3
      vertex 48.7771 4.99683 3
    endloop
  endfacet
  facet normal 0 1 0
    outer loop
      vertex 46.923 4.99683 3
      vertex 48.7771 4.99683 0
      vertex 46.923 4.99683 0
    endloop
  endfacet
  facet normal -0.587784 0.809018 0
    outer loop
      vertex 50.2771 6.08664 0
      vertex 48.7771 4.99683 3
      vertex 50.2771 6.08664 3
    endloop
  endfacet
  facet normal -0.587784 0.809018 0
    outer loop
      vertex 48.7771 4.99683 3
      vertex 50.2771 6.08664 0
      vertex 48.7771 4.99683 0
    endloop
  endfacet
  facet normal 0.951049 -0.309041 0
    outer loop
      vertex 44.85 7.85 3
      vertex 45.423 9.61336 0
      vertex 45.423 9.61336 3
    endloop
  endfacet
  facet normal 0.951049 -0.309041 0
    outer loop
      vertex 45.423 9.61336 0
      vertex 44.85 7.85 3
      vertex 44.85 7.85 0
    endloop
  endfacet
  facet normal 0.980786 -0.195089 0
    outer loop
      vertex 42.85 7.85 5
      vertex 43.2306 9.76342 3
      vertex 43.2306 9.76342 5
    endloop
  endfacet
  facet normal 0.980786 -0.195089 0
    outer loop
      vertex 43.2306 9.76342 3
      vertex 42.85 7.85 5
      vertex 42.85 7.85 3
    endloop
  endfacet
  facet normal -0.831455 -0.555592 0
    outer loop
      vertex 52.4694 9.76342 3
      vertex 51.3855 11.3855 5
      vertex 51.3855 11.3855 3
    endloop
  endfacet
  facet normal -0.831455 -0.555592 0
    outer loop
      vertex 51.3855 11.3855 5
      vertex 52.4694 9.76342 3
      vertex 52.4694 9.76342 5
    endloop
  endfacet
  facet normal -0.980786 -0.195089 0
    outer loop
      vertex 52.85 7.85 3
      vertex 52.4694 9.76342 5
      vertex 52.4694 9.76342 3
    endloop
  endfacet
  facet normal -0.980786 -0.195089 0
    outer loop
      vertex 52.4694 9.76342 5
      vertex 52.85 7.85 3
      vertex 52.85 7.85 5
    endloop
  endfacet
  facet normal -0.555587 -0.831458 0
    outer loop
      vertex 49.7634 12.4694 3
      vertex 51.3855 11.3855 5
      vertex 49.7634 12.4694 5
    endloop
  endfacet
  facet normal -0.555587 -0.831458 -0
    outer loop
      vertex 51.3855 11.3855 5
      vertex 49.7634 12.4694 3
      vertex 51.3855 11.3855 3
    endloop
  endfacet
  facet normal 0.195091 -0.980785 0
    outer loop
      vertex 45.9366 12.4694 3
      vertex 47.85 12.85 5
      vertex 45.9366 12.4694 5
    endloop
  endfacet
  facet normal 0.195091 -0.980785 0
    outer loop
      vertex 47.85 12.85 5
      vertex 45.9366 12.4694 3
      vertex 47.85 12.85 3
    endloop
  endfacet
  facet normal -0.980786 0.195089 0
    outer loop
      vertex 52.4694 5.93658 3
      vertex 52.85 7.85 5
      vertex 52.85 7.85 3
    endloop
  endfacet
  facet normal -0.980786 0.195089 0
    outer loop
      vertex 52.85 7.85 5
      vertex 52.4694 5.93658 3
      vertex 52.4694 5.93658 5
    endloop
  endfacet
  facet normal 0.555587 -0.831458 0
    outer loop
      vertex 44.3145 11.3855 3
      vertex 45.9366 12.4694 5
      vertex 44.3145 11.3855 5
    endloop
  endfacet
  facet normal 0.555587 -0.831458 0
    outer loop
      vertex 45.9366 12.4694 5
      vertex 44.3145 11.3855 3
      vertex 45.9366 12.4694 3
    endloop
  endfacet
  facet normal 0.195091 0.980785 -0
    outer loop
      vertex 47.85 2.85 3
      vertex 45.9366 3.2306 5
      vertex 47.85 2.85 5
    endloop
  endfacet
  facet normal 0.195091 0.980785 0
    outer loop
      vertex 45.9366 3.2306 5
      vertex 47.85 2.85 3
      vertex 45.9366 3.2306 3
    endloop
  endfacet
  facet normal -0.195091 -0.980785 0
    outer loop
      vertex 47.85 12.85 3
      vertex 49.7634 12.4694 5
      vertex 47.85 12.85 5
    endloop
  endfacet
  facet normal -0.195091 -0.980785 -0
    outer loop
      vertex 49.7634 12.4694 5
      vertex 47.85 12.85 3
      vertex 49.7634 12.4694 3
    endloop
  endfacet
  facet normal 0.831455 -0.555592 0
    outer loop
      vertex 43.2306 9.76342 5
      vertex 44.3145 11.3855 3
      vertex 44.3145 11.3855 5
    endloop
  endfacet
  facet normal 0.831455 -0.555592 0
    outer loop
      vertex 44.3145 11.3855 3
      vertex 43.2306 9.76342 5
      vertex 43.2306 9.76342 3
    endloop
  endfacet
  facet normal -0.83146 0.555585 0
    outer loop
      vertex 51.3855 4.31447 3
      vertex 52.4694 5.93658 5
      vertex 52.4694 5.93658 3
    endloop
  endfacet
  facet normal -0.83146 0.555585 0
    outer loop
      vertex 52.4694 5.93658 5
      vertex 51.3855 4.31447 3
      vertex 51.3855 4.31447 5
    endloop
  endfacet
  facet normal 0.83146 0.555585 0
    outer loop
      vertex 44.3145 4.31447 5
      vertex 43.2306 5.93658 3
      vertex 43.2306 5.93658 5
    endloop
  endfacet
  facet normal 0.83146 0.555585 0
    outer loop
      vertex 43.2306 5.93658 3
      vertex 44.3145 4.31447 5
      vertex 44.3145 4.31447 3
    endloop
  endfacet
  facet normal -0.195091 0.980785 0
    outer loop
      vertex 49.7634 3.2306 3
      vertex 47.85 2.85 5
      vertex 49.7634 3.2306 5
    endloop
  endfacet
  facet normal -0.195091 0.980785 0
    outer loop
      vertex 47.85 2.85 5
      vertex 49.7634 3.2306 3
      vertex 47.85 2.85 3
    endloop
  endfacet
  facet normal -0.555576 0.831465 0
    outer loop
      vertex 51.3855 4.31447 3
      vertex 49.7634 3.2306 5
      vertex 51.3855 4.31447 5
    endloop
  endfacet
  facet normal -0.555576 0.831465 0
    outer loop
      vertex 49.7634 3.2306 5
      vertex 51.3855 4.31447 3
      vertex 49.7634 3.2306 3
    endloop
  endfacet
  facet normal 0.980786 0.195089 0
    outer loop
      vertex 43.2306 5.93658 5
      vertex 42.85 7.85 3
      vertex 42.85 7.85 5
    endloop
  endfacet
  facet normal 0.980786 0.195089 0
    outer loop
      vertex 42.85 7.85 3
      vertex 43.2306 5.93658 5
      vertex 43.2306 5.93658 3
    endloop
  endfacet
  facet normal 0 0 1
    outer loop
      vertex 50.85 7.85 3
      vertex 52.85 7.85 3
      vertex 52.4694 9.76342 3
    endloop
  endfacet
  facet normal 0 0 1
    outer loop
      vertex 50.2771 9.61336 3
      vertex 52.4694 9.76342 3
      vertex 51.3855 11.3855 3
    endloop
  endfacet
  facet normal 0 0 1
    outer loop
      vertex 52.85 7.85 3
      vertex 50.85 7.85 3
      vertex 52.4694 5.93658 3
    endloop
  endfacet
  facet normal -0 0 1
    outer loop
      vertex 50.2771 6.08664 3
      vertex 52.4694 5.93658 3
      vertex 50.85 7.85 3
    endloop
  endfacet
  facet normal 0 0 1
    outer loop
      vertex 52.4694 9.76342 3
      vertex 50.2771 9.61336 3
      vertex 50.85 7.85 3
    endloop
  endfacet
  facet normal 0 0 1
    outer loop
      vertex 48.7771 10.7032 3
      vertex 51.3855 11.3855 3
      vertex 49.7634 12.4694 3
    endloop
  endfacet
  facet normal 0 0 1
    outer loop
      vertex 51.3855 11.3855 3
      vertex 48.7771 10.7032 3
      vertex 50.2771 9.61336 3
    endloop
  endfacet
  facet normal 0 0 1
    outer loop
      vertex 47.85 12.85 3
      vertex 48.7771 10.7032 3
      vertex 49.7634 12.4694 3
    endloop
  endfacet
  facet normal 0 0 1
    outer loop
      vertex 47.85 12.85 3
      vertex 46.923 10.7032 3
      vertex 48.7771 10.7032 3
    endloop
  endfacet
  facet normal -0 0 1
    outer loop
      vertex 45.9366 12.4694 3
      vertex 46.923 10.7032 3
      vertex 47.85 12.85 3
    endloop
  endfacet
  facet normal -0 0 1
    outer loop
      vertex 44.3145 11.3855 3
      vertex 46.923 10.7032 3
      vertex 45.9366 12.4694 3
    endloop
  endfacet
  facet normal 0 0 1
    outer loop
      vertex 46.923 10.7032 3
      vertex 44.3145 11.3855 3
      vertex 45.423 9.61336 3
    endloop
  endfacet
  facet normal -0 0 1
    outer loop
      vertex 43.2306 9.76342 3
      vertex 45.423 9.61336 3
      vertex 44.3145 11.3855 3
    endloop
  endfacet
  facet normal 0 0 1
    outer loop
      vertex 52.4694 5.93658 3
      vertex 50.2771 6.08664 3
      vertex 51.3855 4.31447 3
    endloop
  endfacet
  facet normal -0 0 1
    outer loop
      vertex 48.7771 4.99683 3
      vertex 51.3855 4.31447 3
      vertex 50.2771 6.08664 3
    endloop
  endfacet
  facet normal 0 0 1
    outer loop
      vertex 51.3855 4.31447 3
      vertex 48.7771 4.99683 3
      vertex 49.7634 3.2306 3
    endloop
  endfacet
  facet normal 0 0 1
    outer loop
      vertex 48.7771 4.99683 3
      vertex 47.85 2.85 3
      vertex 49.7634 3.2306 3
    endloop
  endfacet
  facet normal -0 0 1
    outer loop
      vertex 46.923 4.99683 3
      vertex 47.85 2.85 3
      vertex 48.7771 4.99683 3
    endloop
  endfacet
  facet normal 0 0 1
    outer loop
      vertex 46.923 4.99683 3
      vertex 45.9366 3.2306 3
      vertex 47.85 2.85 3
    endloop
  endfacet
  facet normal 0 0 1
    outer loop
      vertex 44.3145 4.31447 3
      vertex 46.923 4.99683 3
      vertex 45.423 6.08664 3
    endloop
  endfacet
  facet normal 0 0 1
    outer loop
      vertex 43.2306 5.93658 3
      vertex 45.423 6.08664 3
      vertex 44.85 7.85 3
    endloop
  endfacet
  facet normal 0 0 1
    outer loop
      vertex 46.923 4.99683 3
      vertex 44.3145 4.31447 3
      vertex 45.9366 3.2306 3
    endloop
  endfacet
  facet normal 0 0 1
    outer loop
      vertex 45.423 9.61336 3
      vertex 43.2306 9.76342 3
      vertex 44.85 7.85 3
    endloop
  endfacet
  facet normal 0 0 1
    outer loop
      vertex 42.85 7.85 3
      vertex 44.85 7.85 3
      vertex 43.2306 9.76342 3
    endloop
  endfacet
  facet normal 0 0 1
    outer loop
      vertex 45.423 6.08664 3
      vertex 43.2306 5.93658 3
      vertex 44.3145 4.31447 3
    endloop
  endfacet
  facet normal 0 0 1
    outer loop
      vertex 44.85 7.85 3
      vertex 42.85 7.85 3
      vertex 43.2306 5.93658 3
    endloop
  endfacet
  facet normal 0.555576 0.831465 -0
    outer loop
      vertex 45.9366 3.2306 3
      vertex 44.3145 4.31447 5
      vertex 45.9366 3.2306 5
    endloop
  endfacet
  facet normal 0.555576 0.831465 0
    outer loop
      vertex 44.3145 4.31447 5
      vertex 45.9366 3.2306 3
      vertex 44.3145 4.31447 3
    endloop
  endfacet
  facet normal 1 0 0
    outer loop
      vertex 42.5 127.85 50
      vertex 42.5 127.7 5
      vertex 42.5 127.85 5
    endloop
  endfacet
  facet normal 1 -0 0
    outer loop
      vertex 42.5 12.5 50
      vertex 42.5 127.7 5
      vertex 42.5 127.85 50
    endloop
  endfacet
  facet normal 1 0 0
    outer loop
      vertex 42.5 127.7 5
      vertex 42.5 12.5 50
      vertex 42.5 12.5 5
    endloop
  endfacet
  facet normal -0 0 1
    outer loop
      vertex 0 127.85 50
      vertex 42.5 12.5 50
      vertex 42.5 127.85 50
    endloop
  endfacet
  facet normal 0 0 1
    outer loop
      vertex 42.5 12.5 50
      vertex 0 127.85 50
      vertex 0 12.5 50
    endloop
  endfacet
  facet normal 0 1 -0
    outer loop
      vertex 42.5 127.85 5
      vertex 0 127.85 50
      vertex 42.5 127.85 50
    endloop
  endfacet
  facet normal 0 1 0
    outer loop
      vertex 0 127.85 50
      vertex 42.5 127.85 5
      vertex 0 127.85 5
    endloop
  endfacet
  facet normal 0 -1 0
    outer loop
      vertex 0 12.5 5
      vertex 42.5 12.5 50
      vertex 0 12.5 50
    endloop
  endfacet
  facet normal 0 -1 -0
    outer loop
      vertex 42.5 12.5 50
      vertex 0 12.5 5
      vertex 42.5 12.5 5
    endloop
  endfacet
  facet normal 0 0 -1
    outer loop
      vertex 0 17.5 39
      vertex 37.5 112.5 39
      vertex 37.5 17.5 39
    endloop
  endfacet
  facet normal -0 0 -1
    outer loop
      vertex 37.5 112.5 39
      vertex 0 17.5 39
      vertex 0 112.5 39
    endloop
  endfacet
  facet normal -1 0 0
    outer loop
      vertex 0 17.5 0
      vertex 0 12.5 5
      vertex 0 17.5 39
    endloop
  endfacet
  facet normal -1 0 0
    outer loop
      vertex 0 0 0
      vertex 0 12.5 5
      vertex 0 17.5 0
    endloop
  endfacet
  facet normal -1 -0 0
    outer loop
      vertex 0 12.5 5
      vertex 0 0 0
      vertex 0 0 5
    endloop
  endfacet
  facet normal -1 0 0
    outer loop
      vertex 0 127.7 0
      vertex 0 112.5 0
      vertex 0 127.7 5
    endloop
  endfacet
  facet normal -1 0 0
    outer loop
      vertex 0 112.5 39
      vertex 0 127.85 5
      vertex 0 127.7 5
    endloop
  endfacet
  facet normal -1 0 0
    outer loop
      vertex 0 112.5 39
      vertex 0 127.7 5
      vertex 0 112.5 0
    endloop
  endfacet
  facet normal -1 0 0
    outer loop
      vertex 0 127.85 5
      vertex 0 112.5 39
      vertex 0 127.85 50
    endloop
  endfacet
  facet normal -1 0 0
    outer loop
      vertex 0 12.5 50
      vertex 0 112.5 39
      vertex 0 17.5 39
    endloop
  endfacet
  facet normal -1 0 0
    outer loop
      vertex 0 112.5 39
      vertex 0 12.5 50
      vertex 0 127.85 50
    endloop
  endfacet
  facet normal -1 0 0
    outer loop
      vertex 0 12.5 50
      vertex 0 17.5 39
      vertex 0 12.5 5
    endloop
  endfacet
endsolid OpenSCAD_Model
