solid OpenSCAD_Model
  facet normal -0 0 1
    outer loop
      vertex 8.77705 116.997 5
      vertex 12.5 12.5 5
      vertex 10.2771 118.087 5
    endloop
  endfacet
  facet normal 0 0 1
    outer loop
      vertex 12.5 12.5 5
      vertex 10.2771 9.61336 5
      vertex 10.85 7.85 5
    endloop
  endfacet
  facet normal -0 0 1
    outer loop
      vertex 6.92295 116.997 5
      vertex 12.5 12.5 5
      vertex 8.77705 116.997 5
    endloop
  endfacet
  facet normal 0 0 1
    outer loop
      vertex 12.5 12.5 5
      vertex 8.77705 10.7032 5
      vertex 10.2771 9.61336 5
    endloop
  endfacet
  facet normal 0 0 1
    outer loop
      vertex 6.92295 10.7032 5
      vertex 12.5 12.5 5
      vertex 6.92295 116.997 5
    endloop
  endfacet
  facet normal 0 0 1
    outer loop
      vertex 12.5 12.5 5
      vertex 6.92295 10.7032 5
      vertex 8.77705 10.7032 5
    endloop
  endfacet
  facet normal 0 0 1
    outer loop
      vertex 5.42295 118.087 5
      vertex 6.92295 10.7032 5
      vertex 6.92295 116.997 5
    endloop
  endfacet
  facet normal 0 0 1
    outer loop
      vertex 5.42295 118.087 5
      vertex 5.42295 9.61336 5
      vertex 6.92295 10.7032 5
    endloop
  endfacet
  facet normal 0 0 1
    outer loop
      vertex 0 127.7 5
      vertex 5.42295 118.087 5
      vertex 4.85 119.85 5
    endloop
  endfacet
  facet normal 0 0 1
    outer loop
      vertex 5.42295 118.087 5
      vertex 0 127.7 5
      vertex 5.42295 9.61336 5
    endloop
  endfacet
  facet normal 0 0 1
    outer loop
      vertex 12.5 127.7 5
      vertex 10.85 119.85 5
      vertex 12.5 12.5 5
    endloop
  endfacet
  facet normal 0 0 1
    outer loop
      vertex 12.5 127.7 5
      vertex 10.2771 121.613 5
      vertex 10.85 119.85 5
    endloop
  endfacet
  facet normal 0 0 1
    outer loop
      vertex 12.5 127.7 5
      vertex 8.77705 122.703 5
      vertex 10.2771 121.613 5
    endloop
  endfacet
  facet normal 0 0 1
    outer loop
      vertex 12.5 127.7 5
      vertex 6.92295 122.703 5
      vertex 8.77705 122.703 5
    endloop
  endfacet
  facet normal -0 0 1
    outer loop
      vertex 0 127.7 5
      vertex 6.92295 122.703 5
      vertex 12.5 127.7 5
    endloop
  endfacet
  facet normal 0 0 1
    outer loop
      vertex 0 0 5
      vertex 5.42295 9.61336 5
      vertex 0 127.7 5
    endloop
  endfacet
  facet normal 0 0 1
    outer loop
      vertex 5.42295 121.613 5
      vertex 0 127.7 5
      vertex 4.85 119.85 5
    endloop
  endfacet
  facet normal 0 0 1
    outer loop
      vertex 6.92295 122.703 5
      vertex 0 127.7 5
      vertex 5.42295 121.613 5
    endloop
  endfacet
  facet normal 0 0 1
    outer loop
      vertex 200 12.5 5
      vertex 130.85 7.85 5
      vertex 200 0 5
    endloop
  endfacet
  facet normal 0 0 1
    outer loop
      vertex 200 12.5 5
      vertex 130.277 9.61336 5
      vertex 130.85 7.85 5
    endloop
  endfacet
  facet normal 0 0 1
    outer loop
      vertex 200 12.5 5
      vertex 128.777 10.7032 5
      vertex 130.277 9.61336 5
    endloop
  endfacet
  facet normal 0 0 1
    outer loop
      vertex 200 12.5 5
      vertex 126.923 10.7032 5
      vertex 128.777 10.7032 5
    endloop
  endfacet
  facet normal 0 0 1
    outer loop
      vertex 125.423 9.61336 5
      vertex 12.5 12.5 5
      vertex 124.85 7.85 5
    endloop
  endfacet
  facet normal 0 0 1
    outer loop
      vertex 126.923 10.7032 5
      vertex 12.5 12.5 5
      vertex 125.423 9.61336 5
    endloop
  endfacet
  facet normal -0 0 1
    outer loop
      vertex 12.5 12.5 5
      vertex 126.923 10.7032 5
      vertex 200 12.5 5
    endloop
  endfacet
  facet normal -0 0 1
    outer loop
      vertex 130.277 6.08664 5
      vertex 200 0 5
      vertex 130.85 7.85 5
    endloop
  endfacet
  facet normal -0 0 1
    outer loop
      vertex 128.777 4.99683 5
      vertex 200 0 5
      vertex 130.277 6.08664 5
    endloop
  endfacet
  facet normal -0 0 1
    outer loop
      vertex 126.923 4.99683 5
      vertex 200 0 5
      vertex 128.777 4.99683 5
    endloop
  endfacet
  facet normal 0 0 1
    outer loop
      vertex 10.85 7.85 5
      vertex 124.85 7.85 5
      vertex 12.5 12.5 5
    endloop
  endfacet
  facet normal 0 0 1
    outer loop
      vertex 124.85 7.85 5
      vertex 10.85 7.85 5
      vertex 125.423 6.08664 5
    endloop
  endfacet
  facet normal 0 0 1
    outer loop
      vertex 10.2771 6.08664 5
      vertex 125.423 6.08664 5
      vertex 10.85 7.85 5
    endloop
  endfacet
  facet normal -0 0 1
    outer loop
      vertex 10.2771 118.087 5
      vertex 12.5 12.5 5
      vertex 10.85 119.85 5
    endloop
  endfacet
  facet normal 0 0 1
    outer loop
      vertex 125.423 6.08664 5
      vertex 10.2771 6.08664 5
      vertex 126.923 4.99683 5
    endloop
  endfacet
  facet normal 0 0 1
    outer loop
      vertex 8.77705 4.99683 5
      vertex 126.923 4.99683 5
      vertex 10.2771 6.08664 5
    endloop
  endfacet
  facet normal 0 0 1
    outer loop
      vertex 0 0 5
      vertex 126.923 4.99683 5
      vertex 8.77705 4.99683 5
    endloop
  endfacet
  facet normal 0 0 1
    outer loop
      vertex 0 0 5
      vertex 8.77705 4.99683 5
      vertex 6.92295 4.99683 5
    endloop
  endfacet
  facet normal 0 0 1
    outer loop
      vertex 126.923 4.99683 5
      vertex 0 0 5
      vertex 200 0 5
    endloop
  endfacet
  facet normal 0 0 1
    outer loop
      vertex 5.42295 6.08664 5
      vertex 0 0 5
      vertex 6.92295 4.99683 5
    endloop
  endfacet
  facet normal 0 0 1
    outer loop
      vertex 4.85 7.85 5
      vertex 0 0 5
      vertex 5.42295 6.08664 5
    endloop
  endfacet
  facet normal 0 0 1
    outer loop
      vertex 5.42295 9.61336 5
      vertex 0 0 5
      vertex 4.85 7.85 5
    endloop
  endfacet
  facet normal 0 0 -1
    outer loop
      vertex 12.5 127.7 5
      vertex 200 127.85 5
      vertex 200 127.7 5
    endloop
  endfacet
  facet normal -0 0 -1
    outer loop
      vertex 200 127.85 5
      vertex 12.5 127.7 5
      vertex 12.5 127.85 5
    endloop
  endfacet
  facet normal 0 0 -1
    outer loop
      vertex 6.63647 8.73168 0
      vertex 17.5 17.5 0
      vertex 8.31353 9.27658 0
    endloop
  endfacet
  facet normal 0 0 -1
    outer loop
      vertex 17.5 17.5 0
      vertex 8.31353 118.423 0
      vertex 9.35 119.85 0
    endloop
  endfacet
  facet normal 0 0 -1
    outer loop
      vertex 6.63647 118.968 0
      vertex 17.5 17.5 0
      vertex 6.63647 8.73168 0
    endloop
  endfacet
  facet normal 0 0 -1
    outer loop
      vertex 17.5 17.5 0
      vertex 6.63647 118.968 0
      vertex 8.31353 118.423 0
    endloop
  endfacet
  facet normal 0 0 -1
    outer loop
      vertex 200 0 0
      vertex 129.35 7.85 0
      vertex 200 17.5 0
    endloop
  endfacet
  facet normal 0 0 -1
    outer loop
      vertex 200 0 0
      vertex 128.314 6.42342 0
      vertex 129.35 7.85 0
    endloop
  endfacet
  facet normal 0 0 -1
    outer loop
      vertex 126.636 6.96832 0
      vertex 17.5 17.5 0
      vertex 126.636 8.73168 0
    endloop
  endfacet
  facet normal 0 0 -1
    outer loop
      vertex 0 0 0
      vertex 126.636 6.96832 0
      vertex 128.314 6.42342 0
    endloop
  endfacet
  facet normal 0 0 -1
    outer loop
      vertex 8.31353 9.27658 0
      vertex 17.5 17.5 0
      vertex 9.35 7.85 0
    endloop
  endfacet
  facet normal 0 0 -1
    outer loop
      vertex 126.636 6.96832 0
      vertex 9.35 7.85 0
      vertex 17.5 17.5 0
    endloop
  endfacet
  facet normal 0 0 -1
    outer loop
      vertex 0 0 0
      vertex 128.314 6.42342 0
      vertex 200 0 0
    endloop
  endfacet
  facet normal -0 0 -1
    outer loop
      vertex 126.636 6.96832 0
      vertex 8.31353 6.42342 0
      vertex 9.35 7.85 0
    endloop
  endfacet
  facet normal 0 0 -1
    outer loop
      vertex 0 0 0
      vertex 6.63647 8.73168 0
      vertex 6.63647 6.96832 0
    endloop
  endfacet
  facet normal -0 0 -1
    outer loop
      vertex 6.63647 8.73168 0
      vertex 0 0 0
      vertex 6.63647 118.968 0
    endloop
  endfacet
  facet normal 0 0 -1
    outer loop
      vertex 0 127.7 0
      vertex 6.63647 118.968 0
      vertex 0 0 0
    endloop
  endfacet
  facet normal -0 0 -1
    outer loop
      vertex 8.31353 6.42342 0
      vertex 0 0 0
      vertex 6.63647 6.96832 0
    endloop
  endfacet
  facet normal 0 0 -1
    outer loop
      vertex 126.636 6.96832 0
      vertex 0 0 0
      vertex 8.31353 6.42342 0
    endloop
  endfacet
  facet normal 0 0 -1
    outer loop
      vertex 128.314 9.27658 0
      vertex 200 17.5 0
      vertex 129.35 7.85 0
    endloop
  endfacet
  facet normal 0 0 -1
    outer loop
      vertex 128.314 9.27658 0
      vertex 17.5 17.5 0
      vertex 200 17.5 0
    endloop
  endfacet
  facet normal 0 0 -1
    outer loop
      vertex 17.5 17.5 0
      vertex 128.314 9.27658 0
      vertex 126.636 8.73168 0
    endloop
  endfacet
  facet normal 0 0 -1
    outer loop
      vertex 17.5 112.5 0
      vertex 200 127.7 0
      vertex 200 112.5 0
    endloop
  endfacet
  facet normal 0 0 -1
    outer loop
      vertex 17.5 17.5 0
      vertex 9.35 119.85 0
      vertex 17.5 112.5 0
    endloop
  endfacet
  facet normal 0 0 -1
    outer loop
      vertex 8.31353 121.277 0
      vertex 17.5 112.5 0
      vertex 9.35 119.85 0
    endloop
  endfacet
  facet normal 0 0 -1
    outer loop
      vertex 17.5 112.5 0
      vertex 8.31353 121.277 0
      vertex 200 127.7 0
    endloop
  endfacet
  facet normal 0 0 -1
    outer loop
      vertex 8.31353 121.277 0
      vertex 0 127.7 0
      vertex 200 127.7 0
    endloop
  endfacet
  facet normal 0 0 -1
    outer loop
      vertex 6.63647 120.732 0
      vertex 0 127.7 0
      vertex 8.31353 121.277 0
    endloop
  endfacet
  facet normal 0 0 -1
    outer loop
      vertex 6.63647 118.968 0
      vertex 0 127.7 0
      vertex 6.63647 120.732 0
    endloop
  endfacet
  facet normal -1 0 0
    outer loop
      vertex 0 0 0
      vertex 0 127.7 5
      vertex 0 127.7 0
    endloop
  endfacet
  facet normal -1 -0 0
    outer loop
      vertex 0 127.7 5
      vertex 0 0 0
      vertex 0 0 5
    endloop
  endfacet
  facet normal 0 1 -0
    outer loop
      vertex 200 127.7 0
      vertex 12.5 127.7 5
      vertex 200 127.7 5
    endloop
  endfacet
  facet normal 0 1 0
    outer loop
      vertex 0 127.7 0
      vertex 12.5 127.7 5
      vertex 200 127.7 0
    endloop
  endfacet
  facet normal 0 1 0
    outer loop
      vertex 12.5 127.7 5
      vertex 0 127.7 0
      vertex 0 127.7 5
    endloop
  endfacet
  facet normal 0 -1 0
    outer loop
      vertex 0 0 0
      vertex 200 0 5
      vertex 0 0 5
    endloop
  endfacet
  facet normal 0 -1 -0
    outer loop
      vertex 200 0 5
      vertex 0 0 0
      vertex 200 0 0
    endloop
  endfacet
  facet normal 1 -0 0
    outer loop
      vertex 17.5 17.5 29
      vertex 17.5 112.5 0
      vertex 17.5 112.5 29
    endloop
  endfacet
  facet normal 1 0 0
    outer loop
      vertex 17.5 112.5 0
      vertex 17.5 17.5 29
      vertex 17.5 17.5 0
    endloop
  endfacet
  facet normal 0 -1 0
    outer loop
      vertex 17.5 112.5 29
      vertex 127.5 112.5 20.5
      vertex 200 112.5 29
    endloop
  endfacet
  facet normal 0 -1 0
    outer loop
      vertex 17.5 112.5 29
      vertex 125.559 112.5 20.2444
      vertex 127.5 112.5 20.5
    endloop
  endfacet
  facet normal 0 -1 0
    outer loop
      vertex 17.5 112.5 29
      vertex 123.75 112.5 19.4952
      vertex 125.559 112.5 20.2444
    endloop
  endfacet
  facet normal 0 -1 0
    outer loop
      vertex 17.5 112.5 29
      vertex 122.197 112.5 18.3033
      vertex 123.75 112.5 19.4952
    endloop
  endfacet
  facet normal 0 -1 0
    outer loop
      vertex 17.5 112.5 29
      vertex 121.005 112.5 16.75
      vertex 122.197 112.5 18.3033
    endloop
  endfacet
  facet normal 0 -1 0
    outer loop
      vertex 17.5 112.5 29
      vertex 120.256 112.5 14.9411
      vertex 121.005 112.5 16.75
    endloop
  endfacet
  facet normal 0 -1 0
    outer loop
      vertex 17.5 112.5 29
      vertex 120 112.5 13
      vertex 120.256 112.5 14.9411
    endloop
  endfacet
  facet normal 0 -1 0
    outer loop
      vertex 17.5 112.5 0
      vertex 120 112.5 13
      vertex 17.5 112.5 29
    endloop
  endfacet
  facet normal 0 -1 -0
    outer loop
      vertex 120 112.5 13
      vertex 17.5 112.5 0
      vertex 120.256 112.5 11.0589
    endloop
  endfacet
  facet normal 0 -1 -0
    outer loop
      vertex 120.256 112.5 11.0589
      vertex 17.5 112.5 0
      vertex 121.005 112.5 9.25
    endloop
  endfacet
  facet normal 0 -1 -0
    outer loop
      vertex 121.005 112.5 9.25
      vertex 17.5 112.5 0
      vertex 122.197 112.5 7.6967
    endloop
  endfacet
  facet normal 0 -1 -0
    outer loop
      vertex 122.197 112.5 7.6967
      vertex 17.5 112.5 0
      vertex 123.75 112.5 6.50481
    endloop
  endfacet
  facet normal 0 -1 -0
    outer loop
      vertex 125.559 112.5 5.75556
      vertex 17.5 112.5 0
      vertex 127.5 112.5 5.5
    endloop
  endfacet
  facet normal 0 -1 -0
    outer loop
      vertex 123.75 112.5 6.50481
      vertex 17.5 112.5 0
      vertex 125.559 112.5 5.75556
    endloop
  endfacet
  facet normal 0 -1 0
    outer loop
      vertex 129.441 112.5 20.2444
      vertex 200 112.5 29
      vertex 127.5 112.5 20.5
    endloop
  endfacet
  facet normal 0 -1 0
    outer loop
      vertex 131.25 112.5 19.4952
      vertex 200 112.5 29
      vertex 129.441 112.5 20.2444
    endloop
  endfacet
  facet normal 0 -1 0
    outer loop
      vertex 132.803 112.5 18.3033
      vertex 200 112.5 29
      vertex 131.25 112.5 19.4952
    endloop
  endfacet
  facet normal 0 -1 0
    outer loop
      vertex 133.995 112.5 16.75
      vertex 200 112.5 29
      vertex 132.803 112.5 18.3033
    endloop
  endfacet
  facet normal 0 -1 0
    outer loop
      vertex 134.744 112.5 14.9411
      vertex 200 112.5 29
      vertex 133.995 112.5 16.75
    endloop
  endfacet
  facet normal 0 -1 0
    outer loop
      vertex 135 112.5 13
      vertex 200 112.5 29
      vertex 134.744 112.5 14.9411
    endloop
  endfacet
  facet normal 0 -1 0
    outer loop
      vertex 200 112.5 0
      vertex 135 112.5 13
      vertex 134.744 112.5 11.0589
    endloop
  endfacet
  facet normal 0 -1 0
    outer loop
      vertex 200 112.5 0
      vertex 134.744 112.5 11.0589
      vertex 133.995 112.5 9.25
    endloop
  endfacet
  facet normal 0 -1 0
    outer loop
      vertex 200 112.5 0
      vertex 133.995 112.5 9.25
      vertex 132.803 112.5 7.6967
    endloop
  endfacet
  facet normal 0 -1 0
    outer loop
      vertex 200 112.5 0
      vertex 132.803 112.5 7.6967
      vertex 131.25 112.5 6.50481
    endloop
  endfacet
  facet normal 0 -1 0
    outer loop
      vertex 200 112.5 0
      vertex 131.25 112.5 6.50481
      vertex 129.441 112.5 5.75556
    endloop
  endfacet
  facet normal 0 -1 0
    outer loop
      vertex 135 112.5 13
      vertex 200 112.5 0
      vertex 200 112.5 29
    endloop
  endfacet
  facet normal 0 -1 0
    outer loop
      vertex 127.5 112.5 5.5
      vertex 200 112.5 0
      vertex 129.441 112.5 5.75556
    endloop
  endfacet
  facet normal 0 -1 0
    outer loop
      vertex 200 112.5 0
      vertex 127.5 112.5 5.5
      vertex 17.5 112.5 0
    endloop
  endfacet
  facet normal 0 1 -0
    outer loop
      vertex 200 17.5 0
      vertex 17.5 17.5 29
      vertex 200 17.5 29
    endloop
  endfacet
  facet normal 0 1 0
    outer loop
      vertex 17.5 17.5 29
      vertex 200 17.5 0
      vertex 17.5 17.5 0
    endloop
  endfacet
  facet normal 0.309012 0.951058 -0
    outer loop
      vertex 8.31353 6.42342 0
      vertex 6.63647 6.96832 3
      vertex 8.31353 6.42342 3
    endloop
  endfacet
  facet normal 0.309012 0.951058 0
    outer loop
      vertex 6.63647 6.96832 3
      vertex 8.31353 6.42342 0
      vertex 6.63647 6.96832 0
    endloop
  endfacet
  facet normal 0.309012 -0.951058 0
    outer loop
      vertex 6.63647 8.73168 0
      vertex 8.31353 9.27658 3
      vertex 6.63647 8.73168 3
    endloop
  endfacet
  facet normal 0.309012 -0.951058 0
    outer loop
      vertex 8.31353 9.27658 3
      vertex 6.63647 8.73168 0
      vertex 8.31353 9.27658 0
    endloop
  endfacet
  facet normal -0.809017 -0.587785 0
    outer loop
      vertex 9.35 7.85 0
      vertex 8.31353 9.27658 3
      vertex 8.31353 9.27658 0
    endloop
  endfacet
  facet normal -0.809017 -0.587785 0
    outer loop
      vertex 8.31353 9.27658 3
      vertex 9.35 7.85 0
      vertex 9.35 7.85 3
    endloop
  endfacet
  facet normal 1 -0 0
    outer loop
      vertex 6.63647 6.96832 3
      vertex 6.63647 8.73168 0
      vertex 6.63647 8.73168 3
    endloop
  endfacet
  facet normal 1 0 0
    outer loop
      vertex 6.63647 8.73168 0
      vertex 6.63647 6.96832 3
      vertex 6.63647 6.96832 0
    endloop
  endfacet
  facet normal -0.809017 0.587785 0
    outer loop
      vertex 8.31353 6.42342 0
      vertex 9.35 7.85 3
      vertex 9.35 7.85 0
    endloop
  endfacet
  facet normal -0.809017 0.587785 0
    outer loop
      vertex 9.35 7.85 3
      vertex 8.31353 6.42342 0
      vertex 8.31353 6.42342 3
    endloop
  endfacet
  facet normal 0.951057 0.309017 0
    outer loop
      vertex 5.42295 6.08664 5
      vertex 4.85 7.85 3
      vertex 4.85 7.85 5
    endloop
  endfacet
  facet normal 0.951057 0.309017 0
    outer loop
      vertex 4.85 7.85 3
      vertex 5.42295 6.08664 5
      vertex 5.42295 6.08664 3
    endloop
  endfacet
  facet normal -0.587782 -0.80902 0
    outer loop
      vertex 8.77705 10.7032 3
      vertex 10.2771 9.61336 5
      vertex 8.77705 10.7032 5
    endloop
  endfacet
  facet normal -0.587782 -0.80902 -0
    outer loop
      vertex 10.2771 9.61336 5
      vertex 8.77705 10.7032 3
      vertex 10.2771 9.61336 3
    endloop
  endfacet
  facet normal -0.951065 -0.308992 0
    outer loop
      vertex 10.85 7.85 3
      vertex 10.2771 9.61336 5
      vertex 10.2771 9.61336 3
    endloop
  endfacet
  facet normal -0.951065 -0.308992 0
    outer loop
      vertex 10.2771 9.61336 5
      vertex 10.85 7.85 3
      vertex 10.85 7.85 5
    endloop
  endfacet
  facet normal 0 -1 0
    outer loop
      vertex 6.92295 10.7032 3
      vertex 8.77705 10.7032 5
      vertex 6.92295 10.7032 5
    endloop
  endfacet
  facet normal 0 -1 -0
    outer loop
      vertex 8.77705 10.7032 5
      vertex 6.92295 10.7032 3
      vertex 8.77705 10.7032 3
    endloop
  endfacet
  facet normal 0.587795 -0.80901 0
    outer loop
      vertex 5.42295 9.61336 3
      vertex 6.92295 10.7032 5
      vertex 5.42295 9.61336 5
    endloop
  endfacet
  facet normal 0.587795 -0.80901 0
    outer loop
      vertex 6.92295 10.7032 5
      vertex 5.42295 9.61336 3
      vertex 6.92295 10.7032 3
    endloop
  endfacet
  facet normal -0.951065 0.308992 0
    outer loop
      vertex 10.2771 6.08664 3
      vertex 10.85 7.85 5
      vertex 10.85 7.85 3
    endloop
  endfacet
  facet normal -0.951065 0.308992 0
    outer loop
      vertex 10.85 7.85 5
      vertex 10.2771 6.08664 3
      vertex 10.2771 6.08664 5
    endloop
  endfacet
  facet normal 0.587784 0.809018 -0
    outer loop
      vertex 6.92295 4.99683 3
      vertex 5.42295 6.08664 5
      vertex 6.92295 4.99683 5
    endloop
  endfacet
  facet normal 0.587784 0.809018 0
    outer loop
      vertex 5.42295 6.08664 5
      vertex 6.92295 4.99683 3
      vertex 5.42295 6.08664 3
    endloop
  endfacet
  facet normal 0 1 -0
    outer loop
      vertex 8.77705 4.99683 3
      vertex 6.92295 4.99683 5
      vertex 8.77705 4.99683 5
    endloop
  endfacet
  facet normal 0 1 0
    outer loop
      vertex 6.92295 4.99683 5
      vertex 8.77705 4.99683 3
      vertex 6.92295 4.99683 3
    endloop
  endfacet
  facet normal -0.587771 0.809027 0
    outer loop
      vertex 10.2771 6.08664 3
      vertex 8.77705 4.99683 5
      vertex 10.2771 6.08664 5
    endloop
  endfacet
  facet normal -0.587771 0.809027 0
    outer loop
      vertex 8.77705 4.99683 5
      vertex 10.2771 6.08664 3
      vertex 8.77705 4.99683 3
    endloop
  endfacet
  facet normal 0.951057 -0.309017 0
    outer loop
      vertex 4.85 7.85 5
      vertex 5.42295 9.61336 3
      vertex 5.42295 9.61336 5
    endloop
  endfacet
  facet normal 0.951057 -0.309017 0
    outer loop
      vertex 5.42295 9.61336 3
      vertex 4.85 7.85 5
      vertex 4.85 7.85 3
    endloop
  endfacet
  facet normal 0 0 1
    outer loop
      vertex 9.35 7.85 3
      vertex 10.85 7.85 3
      vertex 10.2771 9.61336 3
    endloop
  endfacet
  facet normal 0 0 1
    outer loop
      vertex 10.85 7.85 3
      vertex 9.35 7.85 3
      vertex 10.2771 6.08664 3
    endloop
  endfacet
  facet normal 0 0 1
    outer loop
      vertex 8.31353 9.27658 3
      vertex 10.2771 9.61336 3
      vertex 8.77705 10.7032 3
    endloop
  endfacet
  facet normal 0 0 1
    outer loop
      vertex 10.2771 9.61336 3
      vertex 8.31353 9.27658 3
      vertex 9.35 7.85 3
    endloop
  endfacet
  facet normal -0 0 1
    outer loop
      vertex 6.92295 10.7032 3
      vertex 8.31353 9.27658 3
      vertex 8.77705 10.7032 3
    endloop
  endfacet
  facet normal 0 0 1
    outer loop
      vertex 6.92295 10.7032 3
      vertex 6.63647 8.73168 3
      vertex 8.31353 9.27658 3
    endloop
  endfacet
  facet normal 0 0 1
    outer loop
      vertex 4.85 7.85 3
      vertex 6.63647 8.73168 3
      vertex 5.42295 9.61336 3
    endloop
  endfacet
  facet normal -0 0 1
    outer loop
      vertex 5.42295 9.61336 3
      vertex 6.63647 8.73168 3
      vertex 6.92295 10.7032 3
    endloop
  endfacet
  facet normal -0 0 1
    outer loop
      vertex 8.31353 6.42342 3
      vertex 10.2771 6.08664 3
      vertex 9.35 7.85 3
    endloop
  endfacet
  facet normal 0 0 1
    outer loop
      vertex 10.2771 6.08664 3
      vertex 8.31353 6.42342 3
      vertex 8.77705 4.99683 3
    endloop
  endfacet
  facet normal 0 0 1
    outer loop
      vertex 8.31353 6.42342 3
      vertex 6.92295 4.99683 3
      vertex 8.77705 4.99683 3
    endloop
  endfacet
  facet normal 0 0 1
    outer loop
      vertex 6.63647 6.96832 3
      vertex 6.92295 4.99683 3
      vertex 8.31353 6.42342 3
    endloop
  endfacet
  facet normal 0 0 1
    outer loop
      vertex 6.63647 8.73168 3
      vertex 4.85 7.85 3
      vertex 6.63647 6.96832 3
    endloop
  endfacet
  facet normal 0 0 1
    outer loop
      vertex 6.63647 6.96832 3
      vertex 5.42295 6.08664 3
      vertex 6.92295 4.99683 3
    endloop
  endfacet
  facet normal 0 0 1
    outer loop
      vertex 6.63647 6.96832 3
      vertex 4.85 7.85 3
      vertex 5.42295 6.08664 3
    endloop
  endfacet
  facet normal 0.309063 0.951041 -0
    outer loop
      vertex 8.31353 118.423 0
      vertex 6.63647 118.968 3
      vertex 8.31353 118.423 3
    endloop
  endfacet
  facet normal 0.309063 0.951041 0
    outer loop
      vertex 6.63647 118.968 3
      vertex 8.31353 118.423 0
      vertex 6.63647 118.968 0
    endloop
  endfacet
  facet normal 0.309063 -0.951041 0
    outer loop
      vertex 6.63647 120.732 0
      vertex 8.31353 121.277 3
      vertex 6.63647 120.732 3
    endloop
  endfacet
  facet normal 0.309063 -0.951041 0
    outer loop
      vertex 8.31353 121.277 3
      vertex 6.63647 120.732 0
      vertex 8.31353 121.277 0
    endloop
  endfacet
  facet normal -0.8091 -0.587672 0
    outer loop
      vertex 9.35 119.85 0
      vertex 8.31353 121.277 3
      vertex 8.31353 121.277 0
    endloop
  endfacet
  facet normal -0.8091 -0.587672 0
    outer loop
      vertex 8.31353 121.277 3
      vertex 9.35 119.85 0
      vertex 9.35 119.85 3
    endloop
  endfacet
  facet normal 1 -0 0
    outer loop
      vertex 6.63647 118.968 3
      vertex 6.63647 120.732 0
      vertex 6.63647 120.732 3
    endloop
  endfacet
  facet normal 1 0 0
    outer loop
      vertex 6.63647 120.732 0
      vertex 6.63647 118.968 3
      vertex 6.63647 118.968 0
    endloop
  endfacet
  facet normal -0.8091 0.587672 0
    outer loop
      vertex 8.31353 118.423 0
      vertex 9.35 119.85 3
      vertex 9.35 119.85 0
    endloop
  endfacet
  facet normal -0.8091 0.587672 0
    outer loop
      vertex 9.35 119.85 3
      vertex 8.31353 118.423 0
      vertex 8.31353 118.423 3
    endloop
  endfacet
  facet normal 0.951038 0.309074 0
    outer loop
      vertex 5.42295 118.087 5
      vertex 4.85 119.85 3
      vertex 4.85 119.85 5
    endloop
  endfacet
  facet normal 0.951038 0.309074 0
    outer loop
      vertex 4.85 119.85 3
      vertex 5.42295 118.087 5
      vertex 5.42295 118.087 3
    endloop
  endfacet
  facet normal -0.587838 -0.808979 0
    outer loop
      vertex 8.77705 122.703 3
      vertex 10.2771 121.613 5
      vertex 8.77705 122.703 5
    endloop
  endfacet
  facet normal -0.587838 -0.808979 -0
    outer loop
      vertex 10.2771 121.613 5
      vertex 8.77705 122.703 3
      vertex 10.2771 121.613 3
    endloop
  endfacet
  facet normal -0.951046 -0.309049 0
    outer loop
      vertex 10.85 119.85 3
      vertex 10.2771 121.613 5
      vertex 10.2771 121.613 3
    endloop
  endfacet
  facet normal -0.951046 -0.309049 0
    outer loop
      vertex 10.2771 121.613 5
      vertex 10.85 119.85 3
      vertex 10.85 119.85 5
    endloop
  endfacet
  facet normal 0 -1 0
    outer loop
      vertex 6.92295 122.703 3
      vertex 8.77705 122.703 5
      vertex 6.92295 122.703 5
    endloop
  endfacet
  facet normal 0 -1 -0
    outer loop
      vertex 8.77705 122.703 5
      vertex 6.92295 122.703 3
      vertex 8.77705 122.703 3
    endloop
  endfacet
  facet normal 0.587851 -0.808969 0
    outer loop
      vertex 5.42295 121.613 3
      vertex 6.92295 122.703 5
      vertex 5.42295 121.613 5
    endloop
  endfacet
  facet normal 0.587851 -0.808969 0
    outer loop
      vertex 6.92295 122.703 5
      vertex 5.42295 121.613 3
      vertex 6.92295 122.703 3
    endloop
  endfacet
  facet normal -0.951046 0.309049 0
    outer loop
      vertex 10.2771 118.087 3
      vertex 10.85 119.85 5
      vertex 10.85 119.85 3
    endloop
  endfacet
  facet normal -0.951046 0.309049 0
    outer loop
      vertex 10.85 119.85 5
      vertex 10.2771 118.087 3
      vertex 10.2771 118.087 5
    endloop
  endfacet
  facet normal 0.587851 0.808969 -0
    outer loop
      vertex 6.92295 116.997 3
      vertex 5.42295 118.087 5
      vertex 6.92295 116.997 5
    endloop
  endfacet
  facet normal 0.587851 0.808969 0
    outer loop
      vertex 5.42295 118.087 5
      vertex 6.92295 116.997 3
      vertex 5.42295 118.087 3
    endloop
  endfacet
  facet normal 0 1 -0
    outer loop
      vertex 8.77705 116.997 3
      vertex 6.92295 116.997 5
      vertex 8.77705 116.997 5
    endloop
  endfacet
  facet normal 0 1 0
    outer loop
      vertex 6.92295 116.997 5
      vertex 8.77705 116.997 3
      vertex 6.92295 116.997 3
    endloop
  endfacet
  facet normal -0.587838 0.808979 0
    outer loop
      vertex 10.2771 118.087 3
      vertex 8.77705 116.997 5
      vertex 10.2771 118.087 5
    endloop
  endfacet
  facet normal -0.587838 0.808979 0
    outer loop
      vertex 8.77705 116.997 5
      vertex 10.2771 118.087 3
      vertex 8.77705 116.997 3
    endloop
  endfacet
  facet normal 0.951038 -0.309074 0
    outer loop
      vertex 4.85 119.85 5
      vertex 5.42295 121.613 3
      vertex 5.42295 121.613 5
    endloop
  endfacet
  facet normal 0.951038 -0.309074 0
    outer loop
      vertex 5.42295 121.613 3
      vertex 4.85 119.85 5
      vertex 4.85 119.85 3
    endloop
  endfacet
  facet normal 0 0 1
    outer loop
      vertex 9.35 119.85 3
      vertex 10.85 119.85 3
      vertex 10.2771 121.613 3
    endloop
  endfacet
  facet normal 0 0 1
    outer loop
      vertex 10.85 119.85 3
      vertex 9.35 119.85 3
      vertex 10.2771 118.087 3
    endloop
  endfacet
  facet normal 0 0 1
    outer loop
      vertex 8.31353 121.277 3
      vertex 10.2771 121.613 3
      vertex 8.77705 122.703 3
    endloop
  endfacet
  facet normal 0 0 1
    outer loop
      vertex 10.2771 121.613 3
      vertex 8.31353 121.277 3
      vertex 9.35 119.85 3
    endloop
  endfacet
  facet normal -0 0 1
    outer loop
      vertex 6.92295 122.703 3
      vertex 8.31353 121.277 3
      vertex 8.77705 122.703 3
    endloop
  endfacet
  facet normal 0 0 1
    outer loop
      vertex 6.92295 122.703 3
      vertex 6.63647 120.732 3
      vertex 8.31353 121.277 3
    endloop
  endfacet
  facet normal 0 0 1
    outer loop
      vertex 4.85 119.85 3
      vertex 6.63647 120.732 3
      vertex 5.42295 121.613 3
    endloop
  endfacet
  facet normal -0 0 1
    outer loop
      vertex 5.42295 121.613 3
      vertex 6.63647 120.732 3
      vertex 6.92295 122.703 3
    endloop
  endfacet
  facet normal -0 0 1
    outer loop
      vertex 8.31353 118.423 3
      vertex 10.2771 118.087 3
      vertex 9.35 119.85 3
    endloop
  endfacet
  facet normal 0 0 1
    outer loop
      vertex 10.2771 118.087 3
      vertex 8.31353 118.423 3
      vertex 8.77705 116.997 3
    endloop
  endfacet
  facet normal 0 0 1
    outer loop
      vertex 8.31353 118.423 3
      vertex 6.92295 116.997 3
      vertex 8.77705 116.997 3
    endloop
  endfacet
  facet normal 0 0 1
    outer loop
      vertex 6.63647 118.968 3
      vertex 6.92295 116.997 3
      vertex 8.31353 118.423 3
    endloop
  endfacet
  facet normal 0 0 1
    outer loop
      vertex 6.63647 120.732 3
      vertex 4.85 119.85 3
      vertex 6.63647 118.968 3
    endloop
  endfacet
  facet normal 0 0 1
    outer loop
      vertex 6.63647 118.968 3
      vertex 5.42295 118.087 3
      vertex 6.92295 116.997 3
    endloop
  endfacet
  facet normal 0 0 1
    outer loop
      vertex 6.63647 118.968 3
      vertex 4.85 119.85 3
      vertex 5.42295 118.087 3
    endloop
  endfacet
  facet normal 0.308855 0.951109 -0
    outer loop
      vertex 128.314 6.42342 0
      vertex 126.636 6.96832 3
      vertex 128.314 6.42342 3
    endloop
  endfacet
  facet normal 0.308855 0.951109 0
    outer loop
      vertex 126.636 6.96832 3
      vertex 128.314 6.42342 0
      vertex 126.636 6.96832 0
    endloop
  endfacet
  facet normal 0.308855 -0.951109 0
    outer loop
      vertex 126.636 8.73168 0
      vertex 128.314 9.27658 3
      vertex 126.636 8.73168 3
    endloop
  endfacet
  facet normal 0.308855 -0.951109 0
    outer loop
      vertex 128.314 9.27658 3
      vertex 126.636 8.73168 0
      vertex 128.314 9.27658 0
    endloop
  endfacet
  facet normal -0.809144 -0.58761 0
    outer loop
      vertex 129.35 7.85 0
      vertex 128.314 9.27658 3
      vertex 128.314 9.27658 0
    endloop
  endfacet
  facet normal -0.809144 -0.58761 0
    outer loop
      vertex 128.314 9.27658 3
      vertex 129.35 7.85 0
      vertex 129.35 7.85 3
    endloop
  endfacet
  facet normal 1 -0 0
    outer loop
      vertex 126.636 6.96832 3
      vertex 126.636 8.73168 0
      vertex 126.636 8.73168 3
    endloop
  endfacet
  facet normal 1 0 0
    outer loop
      vertex 126.636 8.73168 0
      vertex 126.636 6.96832 3
      vertex 126.636 6.96832 0
    endloop
  endfacet
  facet normal -0.809144 0.58761 0
    outer loop
      vertex 128.314 6.42342 0
      vertex 129.35 7.85 3
      vertex 129.35 7.85 0
    endloop
  endfacet
  facet normal -0.809144 0.58761 0
    outer loop
      vertex 129.35 7.85 3
      vertex 128.314 6.42342 0
      vertex 128.314 6.42342 3
    endloop
  endfacet
  facet normal 0.951049 0.309041 0
    outer loop
      vertex 125.423 6.08664 5
      vertex 124.85 7.85 3
      vertex 124.85 7.85 5
    endloop
  endfacet
  facet normal 0.951049 0.309041 0
    outer loop
      vertex 124.85 7.85 3
      vertex 125.423 6.08664 5
      vertex 125.423 6.08664 3
    endloop
  endfacet
  facet normal -0.587795 -0.80901 0
    outer loop
      vertex 128.777 10.7032 3
      vertex 130.277 9.61336 5
      vertex 128.777 10.7032 5
    endloop
  endfacet
  facet normal -0.587795 -0.80901 -0
    outer loop
      vertex 130.277 9.61336 5
      vertex 128.777 10.7032 3
      vertex 130.277 9.61336 3
    endloop
  endfacet
  facet normal -0.951049 -0.309041 0
    outer loop
      vertex 130.85 7.85 3
      vertex 130.277 9.61336 5
      vertex 130.277 9.61336 3
    endloop
  endfacet
  facet normal -0.951049 -0.309041 0
    outer loop
      vertex 130.277 9.61336 5
      vertex 130.85 7.85 3
      vertex 130.85 7.85 5
    endloop
  endfacet
  facet normal 0 -1 0
    outer loop
      vertex 126.923 10.7032 3
      vertex 128.777 10.7032 5
      vertex 126.923 10.7032 5
    endloop
  endfacet
  facet normal 0 -1 -0
    outer loop
      vertex 128.777 10.7032 5
      vertex 126.923 10.7032 3
      vertex 128.777 10.7032 3
    endloop
  endfacet
  facet normal 0.587795 -0.80901 0
    outer loop
      vertex 125.423 9.61336 3
      vertex 126.923 10.7032 5
      vertex 125.423 9.61336 5
    endloop
  endfacet
  facet normal 0.587795 -0.80901 0
    outer loop
      vertex 126.923 10.7032 5
      vertex 125.423 9.61336 3
      vertex 126.923 10.7032 3
    endloop
  endfacet
  facet normal -0.951049 0.309041 0
    outer loop
      vertex 130.277 6.08664 3
      vertex 130.85 7.85 5
      vertex 130.85 7.85 3
    endloop
  endfacet
  facet normal -0.951049 0.309041 0
    outer loop
      vertex 130.85 7.85 5
      vertex 130.277 6.08664 3
      vertex 130.277 6.08664 5
    endloop
  endfacet
  facet normal 0.587784 0.809018 -0
    outer loop
      vertex 126.923 4.99683 3
      vertex 125.423 6.08664 5
      vertex 126.923 4.99683 5
    endloop
  endfacet
  facet normal 0.587784 0.809018 0
    outer loop
      vertex 125.423 6.08664 5
      vertex 126.923 4.99683 3
      vertex 125.423 6.08664 3
    endloop
  endfacet
  facet normal 0 1 -0
    outer loop
      vertex 128.777 4.99683 3
      vertex 126.923 4.99683 5
      vertex 128.777 4.99683 5
    endloop
  endfacet
  facet normal 0 1 0
    outer loop
      vertex 126.923 4.99683 5
      vertex 128.777 4.99683 3
      vertex 126.923 4.99683 3
    endloop
  endfacet
  facet normal -0.587784 0.809018 0
    outer loop
      vertex 130.277 6.08664 3
      vertex 128.777 4.99683 5
      vertex 130.277 6.08664 5
    endloop
  endfacet
  facet normal -0.587784 0.809018 0
    outer loop
      vertex 128.777 4.99683 5
      vertex 130.277 6.08664 3
      vertex 128.777 4.99683 3
    endloop
  endfacet
  facet normal 0.951049 -0.309041 0
    outer loop
      vertex 124.85 7.85 5
      vertex 125.423 9.61336 3
      vertex 125.423 9.61336 5
    endloop
  endfacet
  facet normal 0.951049 -0.309041 0
    outer loop
      vertex 125.423 9.61336 3
      vertex 124.85 7.85 5
      vertex 124.85 7.85 3
    endloop
  endfacet
  facet normal 0 0 1
    outer loop
      vertex 129.35 7.85 3
      vertex 130.85 7.85 3
      vertex 130.277 9.61336 3
    endloop
  endfacet
  facet normal 0 0 1
    outer loop
      vertex 130.85 7.85 3
      vertex 129.35 7.85 3
      vertex 130.277 6.08664 3
    endloop
  endfacet
  facet normal 0 0 1
    outer loop
      vertex 128.314 9.27658 3
      vertex 130.277 9.61336 3
      vertex 128.777 10.7032 3
    endloop
  endfacet
  facet normal 0 0 1
    outer loop
      vertex 130.277 9.61336 3
      vertex 128.314 9.27658 3
      vertex 129.35 7.85 3
    endloop
  endfacet
  facet normal -0 0 1
    outer loop
      vertex 126.923 10.7032 3
      vertex 128.314 9.27658 3
      vertex 128.777 10.7032 3
    endloop
  endfacet
  facet normal 0 0 1
    outer loop
      vertex 126.923 10.7032 3
      vertex 126.636 8.73168 3
      vertex 128.314 9.27658 3
    endloop
  endfacet
  facet normal 0 0 1
    outer loop
      vertex 124.85 7.85 3
      vertex 126.636 8.73168 3
      vertex 125.423 9.61336 3
    endloop
  endfacet
  facet normal -0 0 1
    outer loop
      vertex 125.423 9.61336 3
      vertex 126.636 8.73168 3
      vertex 126.923 10.7032 3
    endloop
  endfacet
  facet normal -0 0 1
    outer loop
      vertex 128.314 6.42342 3
      vertex 130.277 6.08664 3
      vertex 129.35 7.85 3
    endloop
  endfacet
  facet normal 0 0 1
    outer loop
      vertex 130.277 6.08664 3
      vertex 128.314 6.42342 3
      vertex 128.777 4.99683 3
    endloop
  endfacet
  facet normal 0 0 1
    outer loop
      vertex 128.314 6.42342 3
      vertex 126.923 4.99683 3
      vertex 128.777 4.99683 3
    endloop
  endfacet
  facet normal 0 0 1
    outer loop
      vertex 126.636 6.96832 3
      vertex 126.923 4.99683 3
      vertex 128.314 6.42342 3
    endloop
  endfacet
  facet normal 0 0 1
    outer loop
      vertex 126.636 8.73168 3
      vertex 124.85 7.85 3
      vertex 126.636 6.96832 3
    endloop
  endfacet
  facet normal 0 0 1
    outer loop
      vertex 126.636 6.96832 3
      vertex 125.423 6.08664 3
      vertex 126.923 4.99683 3
    endloop
  endfacet
  facet normal 0 0 1
    outer loop
      vertex 126.636 6.96832 3
      vertex 124.85 7.85 3
      vertex 125.423 6.08664 3
    endloop
  endfacet
  facet normal -0 0 1
    outer loop
      vertex 12.5 127.85 35
      vertex 200 12.5 35
      vertex 200 127.85 35
    endloop
  endfacet
  facet normal 0 0 1
    outer loop
      vertex 200 12.5 35
      vertex 12.5 127.85 35
      vertex 12.5 12.5 35
    endloop
  endfacet
  facet normal -1 0 0
    outer loop
      vertex 12.5 127.7 5
      vertex 12.5 127.85 35
      vertex 12.5 127.85 5
    endloop
  endfacet
  facet normal -1 0 0
    outer loop
      vertex 12.5 12.5 5
      vertex 12.5 127.85 35
      vertex 12.5 127.7 5
    endloop
  endfacet
  facet normal -1 -0 0
    outer loop
      vertex 12.5 127.85 35
      vertex 12.5 12.5 5
      vertex 12.5 12.5 35
    endloop
  endfacet
  facet normal 0 1 0
    outer loop
      vertex 200 127.85 35
      vertex 127.5 127.85 20.5
      vertex 12.5 127.85 35
    endloop
  endfacet
  facet normal 0 1 0
    outer loop
      vertex 200 127.85 35
      vertex 129.441 127.85 20.2444
      vertex 127.5 127.85 20.5
    endloop
  endfacet
  facet normal 0 1 0
    outer loop
      vertex 200 127.85 35
      vertex 131.25 127.85 19.4952
      vertex 129.441 127.85 20.2444
    endloop
  endfacet
  facet normal 0 1 0
    outer loop
      vertex 200 127.85 35
      vertex 132.803 127.85 18.3033
      vertex 131.25 127.85 19.4952
    endloop
  endfacet
  facet normal 0 1 0
    outer loop
      vertex 200 127.85 35
      vertex 133.995 127.85 16.75
      vertex 132.803 127.85 18.3033
    endloop
  endfacet
  facet normal 0 1 0
    outer loop
      vertex 200 127.85 35
      vertex 134.744 127.85 14.9411
      vertex 133.995 127.85 16.75
    endloop
  endfacet
  facet normal 0 1 -0
    outer loop
      vertex 200 127.85 5
      vertex 134.744 127.85 14.9411
      vertex 200 127.85 35
    endloop
  endfacet
  facet normal 0 1 0
    outer loop
      vertex 134.744 127.85 14.9411
      vertex 200 127.85 5
      vertex 135 127.85 13
    endloop
  endfacet
  facet normal 0 1 0
    outer loop
      vertex 135 127.85 13
      vertex 200 127.85 5
      vertex 134.744 127.85 11.0589
    endloop
  endfacet
  facet normal 0 1 0
    outer loop
      vertex 134.744 127.85 11.0589
      vertex 200 127.85 5
      vertex 133.995 127.85 9.25
    endloop
  endfacet
  facet normal 0 1 0
    outer loop
      vertex 133.995 127.85 9.25
      vertex 200 127.85 5
      vertex 132.803 127.85 7.6967
    endloop
  endfacet
  facet normal 0 1 0
    outer loop
      vertex 129.441 127.85 5.75556
      vertex 200 127.85 5
      vertex 127.5 127.85 5.5
    endloop
  endfacet
  facet normal 0 1 0
    outer loop
      vertex 131.25 127.85 6.50481
      vertex 200 127.85 5
      vertex 129.441 127.85 5.75556
    endloop
  endfacet
  facet normal 0 1 0
    outer loop
      vertex 132.803 127.85 7.6967
      vertex 200 127.85 5
      vertex 131.25 127.85 6.50481
    endloop
  endfacet
  facet normal 0 1 -0
    outer loop
      vertex 125.559 127.85 20.2444
      vertex 12.5 127.85 35
      vertex 127.5 127.85 20.5
    endloop
  endfacet
  facet normal 0 1 -0
    outer loop
      vertex 123.75 127.85 19.4952
      vertex 12.5 127.85 35
      vertex 125.559 127.85 20.2444
    endloop
  endfacet
  facet normal 0 1 -0
    outer loop
      vertex 122.197 127.85 18.3033
      vertex 12.5 127.85 35
      vertex 123.75 127.85 19.4952
    endloop
  endfacet
  facet normal 0 1 -0
    outer loop
      vertex 121.005 127.85 16.75
      vertex 12.5 127.85 35
      vertex 122.197 127.85 18.3033
    endloop
  endfacet
  facet normal 0 1 -0
    outer loop
      vertex 120.256 127.85 14.9411
      vertex 12.5 127.85 35
      vertex 121.005 127.85 16.75
    endloop
  endfacet
  facet normal 0 1 -0
    outer loop
      vertex 120 127.85 13
      vertex 12.5 127.85 35
      vertex 120.256 127.85 14.9411
    endloop
  endfacet
  facet normal 0 1 0
    outer loop
      vertex 12.5 127.85 5
      vertex 120 127.85 13
      vertex 120.256 127.85 11.0589
    endloop
  endfacet
  facet normal 0 1 0
    outer loop
      vertex 12.5 127.85 5
      vertex 120.256 127.85 11.0589
      vertex 121.005 127.85 9.25
    endloop
  endfacet
  facet normal 0 1 0
    outer loop
      vertex 12.5 127.85 5
      vertex 121.005 127.85 9.25
      vertex 122.197 127.85 7.6967
    endloop
  endfacet
  facet normal 0 1 0
    outer loop
      vertex 12.5 127.85 5
      vertex 122.197 127.85 7.6967
      vertex 123.75 127.85 6.50481
    endloop
  endfacet
  facet normal 0 1 0
    outer loop
      vertex 12.5 127.85 5
      vertex 123.75 127.85 6.50481
      vertex 125.559 127.85 5.75556
    endloop
  endfacet
  facet normal 0 1 0
    outer loop
      vertex 120 127.85 13
      vertex 12.5 127.85 5
      vertex 12.5 127.85 35
    endloop
  endfacet
  facet normal 0 1 0
    outer loop
      vertex 127.5 127.85 5.5
      vertex 12.5 127.85 5
      vertex 125.559 127.85 5.75556
    endloop
  endfacet
  facet normal 0 1 0
    outer loop
      vertex 12.5 127.85 5
      vertex 127.5 127.85 5.5
      vertex 200 127.85 5
    endloop
  endfacet
  facet normal 0 -1 0
    outer loop
      vertex 12.5 12.5 5
      vertex 200 12.5 35
      vertex 12.5 12.5 35
    endloop
  endfacet
  facet normal 0 -1 -0
    outer loop
      vertex 200 12.5 35
      vertex 12.5 12.5 5
      vertex 200 12.5 5
    endloop
  endfacet
  facet normal 0 0 -1
    outer loop
      vertex 17.5 17.5 29
      vertex 200 112.5 29
      vertex 200 17.5 29
    endloop
  endfacet
  facet normal -0 0 -1
    outer loop
      vertex 200 112.5 29
      vertex 17.5 17.5 29
      vertex 17.5 112.5 29
    endloop
  endfacet
  facet normal 0.608836 0 0.793296
    outer loop
      vertex 122.197 127.85 7.6967
      vertex 123.75 112.5 6.50481
      vertex 123.75 127.85 6.50481
    endloop
  endfacet
  facet normal 0.608836 0 0.793296
    outer loop
      vertex 123.75 112.5 6.50481
      vertex 122.197 127.85 7.6967
      vertex 122.197 112.5 7.6967
    endloop
  endfacet
  facet normal -0.923928 0 -0.382565
    outer loop
      vertex 134.744 112.5 14.9411
      vertex 133.995 127.85 16.75
      vertex 134.744 127.85 14.9411
    endloop
  endfacet
  facet normal -0.923928 -0 -0.382565
    outer loop
      vertex 133.995 127.85 16.75
      vertex 134.744 112.5 14.9411
      vertex 133.995 112.5 16.75
    endloop
  endfacet
  facet normal -0.991415 0 -0.130752
    outer loop
      vertex 135 112.5 13
      vertex 134.744 127.85 14.9411
      vertex 135 127.85 13
    endloop
  endfacet
  facet normal -0.991415 -0 -0.130752
    outer loop
      vertex 134.744 127.85 14.9411
      vertex 135 112.5 13
      vertex 134.744 112.5 14.9411
    endloop
  endfacet
  facet normal 0.130558 0 -0.991441
    outer loop
      vertex 125.559 112.5 20.2444
      vertex 127.5 127.85 20.5
      vertex 127.5 112.5 20.5
    endloop
  endfacet
  facet normal 0.130558 0 -0.991441
    outer loop
      vertex 127.5 127.85 20.5
      vertex 125.559 112.5 20.2444
      vertex 125.559 127.85 20.2444
    endloop
  endfacet
  facet normal -0.130537 0 0.991443
    outer loop
      vertex 127.5 127.85 5.5
      vertex 129.441 112.5 5.75556
      vertex 129.441 127.85 5.75556
    endloop
  endfacet
  facet normal -0.130537 0 0.991443
    outer loop
      vertex 129.441 112.5 5.75556
      vertex 127.5 127.85 5.5
      vertex 127.5 112.5 5.5
    endloop
  endfacet
  facet normal -0.793326 0 0.608797
    outer loop
      vertex 132.803 112.5 7.6967
      vertex 133.995 127.85 9.25
      vertex 132.803 127.85 7.6967
    endloop
  endfacet
  facet normal -0.793326 0 0.608797
    outer loop
      vertex 133.995 127.85 9.25
      vertex 132.803 112.5 7.6967
      vertex 133.995 112.5 9.25
    endloop
  endfacet
  facet normal -0.793326 0 -0.608797
    outer loop
      vertex 133.995 112.5 16.75
      vertex 132.803 127.85 18.3033
      vertex 133.995 127.85 16.75
    endloop
  endfacet
  facet normal -0.793326 -0 -0.608797
    outer loop
      vertex 132.803 127.85 18.3033
      vertex 133.995 112.5 16.75
      vertex 132.803 112.5 18.3033
    endloop
  endfacet
  facet normal 0.793326 0 -0.608797
    outer loop
      vertex 122.197 112.5 18.3033
      vertex 121.005 127.85 16.75
      vertex 122.197 127.85 18.3033
    endloop
  endfacet
  facet normal 0.793326 0 -0.608797
    outer loop
      vertex 121.005 127.85 16.75
      vertex 122.197 112.5 18.3033
      vertex 121.005 112.5 16.75
    endloop
  endfacet
  facet normal -0.130558 0 -0.991441
    outer loop
      vertex 127.5 112.5 20.5
      vertex 129.441 127.85 20.2444
      vertex 129.441 112.5 20.2444
    endloop
  endfacet
  facet normal -0.130558 0 -0.991441
    outer loop
      vertex 129.441 127.85 20.2444
      vertex 127.5 112.5 20.5
      vertex 127.5 127.85 20.5
    endloop
  endfacet
  facet normal 0.991415 0 -0.130752
    outer loop
      vertex 120.256 112.5 14.9411
      vertex 120 127.85 13
      vertex 120.256 127.85 14.9411
    endloop
  endfacet
  facet normal 0.991415 0 -0.130752
    outer loop
      vertex 120 127.85 13
      vertex 120.256 112.5 14.9411
      vertex 120 112.5 13
    endloop
  endfacet
  facet normal 0.608839 0 -0.793294
    outer loop
      vertex 122.197 112.5 18.3033
      vertex 123.75 127.85 19.4952
      vertex 123.75 112.5 19.4952
    endloop
  endfacet
  facet normal 0.608839 0 -0.793294
    outer loop
      vertex 123.75 127.85 19.4952
      vertex 122.197 112.5 18.3033
      vertex 122.197 127.85 18.3033
    endloop
  endfacet
  facet normal 0.991415 -0 0.130752
    outer loop
      vertex 120 112.5 13
      vertex 120.256 127.85 11.0589
      vertex 120 127.85 13
    endloop
  endfacet
  facet normal 0.991415 0 0.130752
    outer loop
      vertex 120.256 127.85 11.0589
      vertex 120 112.5 13
      vertex 120.256 112.5 11.0589
    endloop
  endfacet
  facet normal -0.382634 0 -0.9239
    outer loop
      vertex 129.441 112.5 20.2444
      vertex 131.25 127.85 19.4952
      vertex 131.25 112.5 19.4952
    endloop
  endfacet
  facet normal -0.382634 0 -0.9239
    outer loop
      vertex 131.25 127.85 19.4952
      vertex 129.441 112.5 20.2444
      vertex 129.441 127.85 20.2444
    endloop
  endfacet
  facet normal -0.608839 0 -0.793294
    outer loop
      vertex 131.25 112.5 19.4952
      vertex 132.803 127.85 18.3033
      vertex 132.803 112.5 18.3033
    endloop
  endfacet
  facet normal -0.608839 0 -0.793294
    outer loop
      vertex 132.803 127.85 18.3033
      vertex 131.25 112.5 19.4952
      vertex 131.25 127.85 19.4952
    endloop
  endfacet
  facet normal 0.130537 0 0.991443
    outer loop
      vertex 125.559 127.85 5.75556
      vertex 127.5 112.5 5.5
      vertex 127.5 127.85 5.5
    endloop
  endfacet
  facet normal 0.130537 0 0.991443
    outer loop
      vertex 127.5 112.5 5.5
      vertex 125.559 127.85 5.75556
      vertex 125.559 112.5 5.75556
    endloop
  endfacet
  facet normal 0.793326 -0 0.608797
    outer loop
      vertex 121.005 112.5 9.25
      vertex 122.197 127.85 7.6967
      vertex 121.005 127.85 9.25
    endloop
  endfacet
  facet normal 0.793326 0 0.608797
    outer loop
      vertex 122.197 127.85 7.6967
      vertex 121.005 112.5 9.25
      vertex 122.197 112.5 7.6967
    endloop
  endfacet
  facet normal -0.608836 0 0.793296
    outer loop
      vertex 131.25 127.85 6.50481
      vertex 132.803 112.5 7.6967
      vertex 132.803 127.85 7.6967
    endloop
  endfacet
  facet normal -0.608836 0 0.793296
    outer loop
      vertex 132.803 112.5 7.6967
      vertex 131.25 127.85 6.50481
      vertex 131.25 112.5 6.50481
    endloop
  endfacet
  facet normal -0.382656 0 0.923891
    outer loop
      vertex 129.441 127.85 5.75556
      vertex 131.25 112.5 6.50481
      vertex 131.25 127.85 6.50481
    endloop
  endfacet
  facet normal -0.382656 0 0.923891
    outer loop
      vertex 131.25 112.5 6.50481
      vertex 129.441 127.85 5.75556
      vertex 129.441 112.5 5.75556
    endloop
  endfacet
  facet normal 0.923928 0 -0.382565
    outer loop
      vertex 121.005 112.5 16.75
      vertex 120.256 127.85 14.9411
      vertex 121.005 127.85 16.75
    endloop
  endfacet
  facet normal 0.923928 0 -0.382565
    outer loop
      vertex 120.256 127.85 14.9411
      vertex 121.005 112.5 16.75
      vertex 120.256 112.5 14.9411
    endloop
  endfacet
  facet normal 0.382656 0 0.923891
    outer loop
      vertex 123.75 127.85 6.50481
      vertex 125.559 112.5 5.75556
      vertex 125.559 127.85 5.75556
    endloop
  endfacet
  facet normal 0.382656 0 0.923891
    outer loop
      vertex 125.559 112.5 5.75556
      vertex 123.75 127.85 6.50481
      vertex 123.75 112.5 6.50481
    endloop
  endfacet
  facet normal 0.382634 0 -0.9239
    outer loop
      vertex 123.75 112.5 19.4952
      vertex 125.559 127.85 20.2444
      vertex 125.559 112.5 20.2444
    endloop
  endfacet
  facet normal 0.382634 0 -0.9239
    outer loop
      vertex 125.559 127.85 20.2444
      vertex 123.75 112.5 19.4952
      vertex 123.75 127.85 19.4952
    endloop
  endfacet
  facet normal -0.923928 0 0.382565
    outer loop
      vertex 133.995 112.5 9.25
      vertex 134.744 127.85 11.0589
      vertex 133.995 127.85 9.25
    endloop
  endfacet
  facet normal -0.923928 0 0.382565
    outer loop
      vertex 134.744 127.85 11.0589
      vertex 133.995 112.5 9.25
      vertex 134.744 112.5 11.0589
    endloop
  endfacet
  facet normal 0.923928 -0 0.382565
    outer loop
      vertex 120.256 112.5 11.0589
      vertex 121.005 127.85 9.25
      vertex 120.256 127.85 11.0589
    endloop
  endfacet
  facet normal 0.923928 0 0.382565
    outer loop
      vertex 121.005 127.85 9.25
      vertex 120.256 112.5 11.0589
      vertex 121.005 112.5 9.25
    endloop
  endfacet
  facet normal -0.991415 0 0.130752
    outer loop
      vertex 134.744 112.5 11.0589
      vertex 135 127.85 13
      vertex 134.744 127.85 11.0589
    endloop
  endfacet
  facet normal -0.991415 0 0.130752
    outer loop
      vertex 135 127.85 13
      vertex 134.744 112.5 11.0589
      vertex 135 112.5 13
    endloop
  endfacet
  facet normal 1 0 0
    outer loop
      vertex 200 127.85 35
      vertex 200 127.7 5
      vertex 200 127.85 5
    endloop
  endfacet
  facet normal 1 0 0
    outer loop
      vertex 200 112.5 0
      vertex 200 127.7 5
      vertex 200 112.5 29
    endloop
  endfacet
  facet normal 1 0 0
    outer loop
      vertex 200 127.85 35
      vertex 200 112.5 29
      vertex 200 127.7 5
    endloop
  endfacet
  facet normal 1 -0 0
    outer loop
      vertex 200 12.5 35
      vertex 200 112.5 29
      vertex 200 127.85 35
    endloop
  endfacet
  facet normal 1 0 0
    outer loop
      vertex 200 112.5 29
      vertex 200 12.5 35
      vertex 200 17.5 29
    endloop
  endfacet
  facet normal 1 0 0
    outer loop
      vertex 200 12.5 5
      vertex 200 17.5 29
      vertex 200 12.5 35
    endloop
  endfacet
  facet normal 1 0 0
    outer loop
      vertex 200 17.5 29
      vertex 200 12.5 5
      vertex 200 17.5 0
    endloop
  endfacet
  facet normal 1 0 0
    outer loop
      vertex 200 0 0
      vertex 200 12.5 5
      vertex 200 0 5
    endloop
  endfacet
  facet normal 1 0 0
    outer loop
      vertex 200 12.5 5
      vertex 200 0 0
      vertex 200 17.5 0
    endloop
  endfacet
  facet normal 1 0 0
    outer loop
      vertex 200 127.7 5
      vertex 200 112.5 0
      vertex 200 127.7 0
    endloop
  endfacet
endsolid OpenSCAD_Model
